<?xml version="1.0" encoding="UTF-8" standalone="no"?>
<svg width="502px" height="192px" viewBox="0 0 502 192" version="1.1" xmlns="http://www.w3.org/2000/svg" xmlns:xlink="http://www.w3.org/1999/xlink">
    <!-- Generator: Sketch 46.1 (44463) - http://www.bohemiancoding.com/sketch -->
    <title>Mobile</title>
    <desc>Created with Sketch.</desc>
    <defs></defs>
    <g id="Page-1" stroke="none" stroke-width="1" fill="none" fill-rule="evenodd">
        <g id="Mobile">
            <g id="Group-8" transform="translate(156.000000, 11.000000)">
                <g id="Group-4">
                    <g id="Page-1">
                        <path d="M24,60.7855833 L24,132.919729 L85.2908586,168.219444 L86.6454293,169 L88,168.219444 L88,96.0765 L86.65803,95.3009721 L86.6454293,95.3009721 L86.6454293,95.2871458 L28.0788329,61.5787082 L25.3633912,60 L24,60.7855833 Z M26.7078813,131.367417 L26.7078813,63.9166042 L85.2908586,97.640125 L85.2908586,165.090937 L26.7078813,131.367417 Z" id="Fill-1" fill="#474F59"></path>
                        <path d="M86.5119427,94.9033622 L86.4868002,94.9033622 L28.0705802,61.5112017 L86.4993714,28.1016163 L144.933191,61.5112017 L86.5119427,94.9033622 Z M147.63853,59.9467026 L86.4993714,25 L25.3602124,59.9467026 L24,60.7258406 L24,62.2754041 L26.702825,63.8262122 L85.1479589,97.2196174 L86.4993714,98 L87.8507839,97.2196174 L146.297175,63.8262122 L149,62.2754041 L149,60.7258406 L147.63853,59.9467026 Z" id="Fill-2" fill="#474F59"></path>
                        <path d="M144.922588,61.5787082 L86.3557774,95.2871458 L86.3557774,95.3009721 L86.3431772,95.3009721 L85,96.0765 L85,168.219444 L86.3557774,169 L87.7090347,168.219444 L149,132.919729 L149,60.7855833 L147.634142,60 L144.922588,61.5787082 Z M87.7090347,97.640125 L146.289705,63.9166042 L146.289705,131.367417 L87.7090347,165.090937 L87.7090347,97.640125 Z" id="Fill-3" fill="#474F59"></path>
                        <path d="M85,4.42327899 L88,4.42327899 L88,0 L85,0 L85,4.42327899 Z M85,13.2559471 L88,13.2559471 L88,8.83140544 L85,8.83140544 L85,13.2559471 Z M85,22.0873526 L88,22.0873526 L88,17.6628109 L85,17.6628109 L85,22.0873526 Z M85,38.3409772 L88,38.3409772 L88,33.9341135 L85,33.9341135 L85,38.3409772 Z M85,47.1698573 L88,47.1698573 L88,42.765519 L85,42.765519 L85,47.1698573 Z M85,56 L88,56 L88,51.5931363 L85,51.5931363 L85,56 Z" id="Fill-4" fill="#474F59"></path>
                        <path d="M122,119.351428 L125.819389,121.552739 L127.176161,119.200049 L123.356772,117 L122,119.351428 Z M129.638778,123.752787 L133.458166,125.966713 L134.814938,123.600146 L130.994289,121.400098 L129.638778,123.752787 Z M137.276294,128.168023 L141.094422,130.368072 L142.451194,128.016644 L138.631805,125.817856 L137.276294,128.168023 Z M152.552589,136.984618 L156.369456,139.183405 L157.723706,136.830715 L153.9081,134.630667 L152.552589,136.984618 Z M160.191366,141.383454 L164.006972,143.599902 L165.362483,141.233336 L161.544355,139.032026 L160.191366,141.383454 Z M167.827622,145.79869 L171.643228,148 L173,145.64731 L169.183133,143.448523 L167.827622,145.79869 Z" id="Fill-5" fill="#474F59"></path>
                        <path d="M45.8271104,119.198877 L47.1802334,121.551662 L51,119.351524 L49.6456159,117 L45.8271104,119.198877 Z M38.1875773,123.599154 L39.5444835,125.967078 L43.3617279,123.753062 L42.0086049,121.400277 L38.1875773,123.599154 Z M30.5505662,128.01583 L31.9049503,130.367354 L35.7247169,128.168478 L34.3703328,125.816954 L30.5505662,128.01583 Z M15.2765442,136.831522 L16.6321893,139.184308 L20.4494338,136.985431 L19.0937886,134.631384 L15.2765442,136.831522 Z M7.63827209,141.233061 L8.99265615,143.600985 L12.8099006,141.384446 L11.4542555,139.031661 L7.63827209,141.233061 Z M0,145.647214 L1.35564512,148 L5.17162851,145.7986 L3.81724445,143.448338 L0,145.647214 Z" id="Fill-6" fill="#474F59"></path>
                        <polygon id="Fill-7" fill="#F2F2F2" points="86 133 56 115.317825 56 80 86 97.6721156"></polygon>
                        <polygon id="Fill-8" fill="#F05424" points="86.49373 62 56 79.4825511 86.49373 97 117 79.4825511"></polygon>
                        <polygon id="Fill-9" fill="#D9D8D7" points="86 133 116 115.317825 116 80 86 97.6721156"></polygon>
                        <polygon id="Fill-10" fill="#FAB83E" points="86 80 71 88.6880669 71 106 86 97.3526758"></polygon>
                        <polygon id="Fill-11" fill="#353F49" points="85.9987661 115 71 105.983966 85.9987661 97 101 105.983966"></polygon>
                        <polygon id="Fill-12" fill="#FFDB79" points="86 80 101 88.6880669 101 106 86 97.3526758"></polygon>
                    </g>
                </g>
            </g>
        </g>
    </g>
</svg>