<?xml version="1.0" encoding="UTF-8" standalone="no"?>
<svg width="52px" height="52px" viewBox="0 0 52 52" version="1.1" xmlns="http://www.w3.org/2000/svg" xmlns:xlink="http://www.w3.org/1999/xlink">
    <!-- Generator: Sketch 46.1 (44463) - http://www.bohemiancoding.com/sketch -->
    <title>Page 1</title>
    <desc>Created with Sketch.</desc>
    <defs></defs>
    <g id="Page-1" stroke="none" stroke-width="1" fill="none" fill-rule="evenodd">
        <g id="PD--Home" transform="translate(-229.000000, -136.000000)">
            <g id="Page-1" transform="translate(229.000000, 136.000000)">
                <polygon id="Fill-1" fill="#17C5CD" points="13 44.6667807 26 52 26 37.3335615 13 30"></polygon>
                <polygon id="Fill-2" fill="#F2F2F2" points="26 23 13 30.5 26 38 39 30.5"></polygon>
                <polygon id="Fill-3" fill="#D9D8D7" points="26 37.3335615 26 52 39 44.6667807 39 30"></polygon>
                <polygon id="Fill-4" fill="#F15424" points="39 30 26 22.6664385 26 8 39 15.3332193"></polygon>
                <polygon id="Fill-5" fill="#242D3C" points="26 8.50034999 38.9992995 16 52 8.50034999 38.9992995 1"></polygon>
                <polygon id="Fill-6" fill="#FFCA40" points="39 15.3332193 39 30 52 22.6664385 52 8"></polygon>
                <g id="Group-29" fill="#242D3C">
                    <path d="M0.355298684,22.8967057 L13.1856276,30.2419443 L13.1856276,15.551467 L0.355298684,8.20622841 L0.355298684,22.8967057 Z M13.3632592,30.7231489 C13.3327066,30.7231489 13.3017987,30.7153989 13.2744434,30.6995466 L0.0888513158,23.1510466 C0.0341407895,23.119342 3.55263158e-05,23.061217 3.55263158e-05,22.9985125 L3.55263158e-05,7.90116023 C3.55263158e-05,7.83810341 0.0341407895,7.77997841 0.0888513158,7.74862614 C0.143561842,7.71727386 0.211772368,7.71727386 0.266482895,7.74862614 L13.452075,15.2971261 C13.5071408,15.3288307 13.5408908,15.3869557 13.5408908,15.4496602 L13.5408908,30.5470125 C13.5408908,30.6100693 13.5071408,30.6681943 13.452075,30.6995466 C13.4247197,30.7153989 13.3938118,30.7231489 13.3632592,30.7231489 L13.3632592,30.7231489 Z" id="Fill-7"></path>
                    <path d="M0.532930263,7.90119545 L13.3639697,15.2464341 L26.1942987,7.90119545 L13.3639697,0.555604545 L0.532930263,7.90119545 Z M13.3639697,15.6258318 C13.3334171,15.6258318 13.3025092,15.6180818 13.2751539,15.6022295 L0.0888513158,8.05372955 C0.0341407895,8.02237727 3.55263158e-05,7.96425227 3.55263158e-05,7.90119545 C3.55263158e-05,7.83813864 0.0341407895,7.78001364 0.0888513158,7.74866136 L13.2751539,0.199809091 C13.3298645,0.168456818 13.398075,0.168456818 13.4527855,0.199809091 L26.6383776,7.74866136 C26.6934434,7.78001364 26.7271934,7.83813864 26.7271934,7.90119545 C26.7271934,7.96425227 26.6934434,8.02237727 26.6383776,8.05372955 L13.4527855,15.6022295 C13.4254303,15.6180818 13.3945224,15.6258318 13.3639697,15.6258318 L13.3639697,15.6258318 Z" id="Fill-9"></path>
                    <path d="M26.5490289,23.1744727 C26.5188316,23.1744727 26.4882789,23.167075 26.4602132,23.1508705 L25.5372395,22.6224614 C25.4523316,22.5738477 25.4232,22.4660523 25.4725816,22.3818591 C25.5208974,22.2976659 25.6299632,22.2691318 25.7148711,22.3173932 L26.6378447,22.8458023 C26.7227526,22.8944159 26.7518842,23.0022114 26.7028579,23.0864045 C26.6701737,23.1431205 26.6101342,23.1744727 26.5490289,23.1744727" id="Fill-11"></path>
                    <path d="M17.5262329,18.0089216 C17.4960355,18.0089216 17.4654829,18.0015239 17.4374171,17.9853193 L15.8170618,17.0577852 C15.7321539,17.0091716 15.7030224,16.9013761 15.7524039,16.817183 C15.801075,16.7329898 15.9097855,16.7044557 15.9946934,16.752717 L17.6150487,17.6802511 C17.6999566,17.7288648 17.7290882,17.8366602 17.6800618,17.9208534 C17.6473776,17.977217 17.5873382,18.0089216 17.5262329,18.0089216 M20.7658776,19.8636375 C20.7356803,19.8636375 20.7051276,19.8562398 20.6770618,19.8400352 L19.0574171,18.9125011 C18.9721539,18.8638875 18.9430224,18.7564443 18.9924039,18.6718989 C19.0414303,18.5877057 19.1501408,18.5591716 19.2350487,18.607433 L20.8546934,19.534967 C20.9396013,19.5835807 20.9687329,19.6913761 20.9197066,19.7755693 C20.8870224,19.8322852 20.8269829,19.8636375 20.7658776,19.8636375 M24.0058776,21.7187057 C23.9756803,21.7187057 23.9451276,21.7109557 23.9170618,21.6951034 L22.2974171,20.7675693 C22.2121539,20.7189557 22.1830224,20.6111602 22.2324039,20.526967 C22.2814303,20.4424216 22.3901408,20.414592 22.4750487,20.4625011 L24.0946934,21.3900352 C24.1799566,21.4386489 24.2090882,21.5464443 24.1597066,21.6306375 C24.1270224,21.6870011 24.0669829,21.7187057 24.0058776,21.7187057" id="Fill-13"></path>
                    <path d="M14.2861974,16.1539591 C14.256,16.1539591 14.2254474,16.1465614 14.1973816,16.1303568 L13.3632237,15.652675 L12.5294211,16.1303568 C12.4441579,16.1786182 12.3354474,16.1504364 12.2867763,16.0658909 C12.2373947,15.9816977 12.2665263,15.8739023 12.3517895,15.8252886 L13.2744079,15.2968795 C13.3294737,15.2655273 13.3973289,15.2655273 13.4520395,15.2968795 L14.3750132,15.8252886 C14.4599211,15.8739023 14.4890526,15.9816977 14.4400263,16.0658909 C14.4073421,16.1226068 14.3473026,16.1539591 14.2861974,16.1539591" id="Fill-15"></path>
                    <path d="M9.20046316,18.0089216 C9.13935789,18.0089216 9.07931842,17.9775693 9.04663421,17.9208534 C8.99760789,17.8366602 9.02673947,17.7288648 9.11164737,17.6802511 L10.7316474,16.752717 C10.8158447,16.7037511 10.9249105,16.7326375 10.9739368,16.817183 C11.0233184,16.9013761 10.9941868,17.0091716 10.9092789,17.0577852 L9.28927895,17.9853193 C9.26121316,18.0015239 9.23066053,18.0089216 9.20046316,18.0089216 M5.96046316,19.8639898 C5.89935789,19.8639898 5.83931842,19.8322852 5.80663421,19.7759216 C5.75760789,19.6913761 5.78673947,19.583933 5.87164737,19.5353193 L7.49129211,18.6077852 C7.5762,18.5591716 7.68526579,18.5873534 7.73393684,18.6722511 C7.78331842,18.7564443 7.75418684,18.8642398 7.66892368,18.9128534 L6.04927895,19.8403875 C6.02121316,19.8562398 5.99066053,19.8639898 5.96046316,19.8639898 M2.72046316,21.7187057 C2.65935789,21.7187057 2.59931842,21.6870011 2.56663421,21.6306375 C2.51725263,21.5464443 2.54673947,21.4386489 2.63164737,21.3900352 L4.25164737,20.4625011 C4.33655526,20.4138875 4.44562105,20.4420693 4.49429211,20.526967 C4.54367368,20.6111602 4.51454211,20.7189557 4.42927895,20.7675693 L2.80927895,21.6951034 C2.78121316,21.7109557 2.75066053,21.7187057 2.72046316,21.7187057" id="Fill-17"></path>
                    <path d="M0.177667105,23.1744727 C0.116561842,23.1744727 0.0565223684,23.1431205 0.0238381579,23.0864045 C-0.0251881579,23.0022114 0.00394342105,22.8944159 0.0888513158,22.8458023 L1.011825,22.3173932 C1.09637763,22.2687795 1.20544342,22.2973136 1.25411447,22.3818591 C1.30349605,22.4660523 1.27436447,22.5738477 1.18945658,22.6224614 L0.266482895,23.1508705 C0.238417105,23.167075 0.207864474,23.1744727 0.177667105,23.1744727" id="Fill-19"></path>
                    <path d="M13.5409618,15.5514318 L13.5409618,30.2419091 L26.3712908,22.8966705 L26.3712908,8.20619318 L13.5409618,15.5514318 Z M13.3633303,30.7231136 C13.3327776,30.7231136 13.3018697,30.7153636 13.2745145,30.6995114 C13.2198039,30.6681591 13.1856987,30.6100341 13.1856987,30.5469773 L13.1856987,15.449625 C13.1856987,15.3869205 13.2198039,15.3287955 13.2745145,15.2970909 L26.4601066,7.74859091 C26.5151724,7.71723864 26.5830276,7.71723864 26.6377382,7.74859091 C26.6928039,7.77994318 26.7265539,7.83806818 26.7265539,7.901125 L26.7265539,22.9984773 C26.7265539,23.0611818 26.6928039,23.1193068 26.6377382,23.1510114 L13.4521461,30.6995114 C13.4247908,30.7153636 13.3938829,30.7231136 13.3633303,30.7231136 L13.3633303,30.7231136 Z" id="Fill-21"></path>
                    <path d="M13.4364092,1.58522727 C13.2984092,1.58522727 13.1864092,1.50631818 13.1864092,1.40909091 L13.1864092,0.352272727 C13.1864092,0.255045455 13.2984092,0.176136364 13.4364092,0.176136364 C13.5744092,0.176136364 13.6864092,0.255045455 13.6864092,0.352272727 L13.6864092,1.40909091 C13.6864092,1.50631818 13.5744092,1.58522727 13.4364092,1.58522727" id="Fill-23"></path>
                    <path d="M13.4361977,5.29476477 C13.2984731,5.29476477 13.1866967,5.21585568 13.1866967,5.11862841 L13.1866967,3.2639125 C13.1866967,3.16633295 13.2984731,3.08777614 13.4361977,3.08777614 C13.5739222,3.08777614 13.6856987,3.16633295 13.6856987,3.2639125 L13.6856987,5.11862841 C13.6856987,5.21585568 13.5739222,5.29476477 13.4361977,5.29476477 M13.4356987,9.00454886 C13.2979741,9.00454886 13.1861977,8.92563977 13.1861977,8.8284125 L13.1861977,6.97369659 C13.1861977,6.87611705 13.2979741,6.79756023 13.4356987,6.79756023 C13.5734232,6.79756023 13.6851997,6.87611705 13.6851997,6.97369659 L13.6851997,8.8284125 C13.6851997,8.92563977 13.5734232,9.00454886 13.4356987,9.00454886 M13.4351997,12.714333 L13.4351997,12.714333 C13.2974751,12.714333 13.1856987,12.6350716 13.1856987,12.5381966 L13.1861977,10.6831284 C13.1861977,10.5859011 13.2979741,10.506992 13.4356987,10.506992 C13.5734232,10.506992 13.6851997,10.5862534 13.6851997,10.6831284 L13.6847007,12.5381966 C13.6847007,12.6354239 13.5729242,12.714333 13.4351997,12.714333" id="Fill-25"></path>
                    <path d="M13.4356987,15.6259023 C13.2976987,15.6259023 13.1856987,15.5469932 13.1856987,15.4497659 L13.1856987,14.3929477 C13.1856987,14.2957205 13.2976987,14.2168114 13.4356987,14.2168114 C13.5736987,14.2168114 13.6856987,14.2957205 13.6856987,14.3929477 L13.6856987,15.4497659 C13.6856987,15.5469932 13.5736987,15.6259023 13.4356987,15.6259023" id="Fill-27"></path>
                </g>
            </g>
        </g>
    </g>
</svg>