<?xml version="1.0" encoding="UTF-8" standalone="no"?>
<svg width="502px" height="192px" viewBox="0 0 502 192" version="1.1" xmlns="http://www.w3.org/2000/svg" xmlns:xlink="http://www.w3.org/1999/xlink">
    <!-- Generator: Sketch 46.1 (44463) - http://www.bohemiancoding.com/sketch -->
    <title>Mobile</title>
    <desc>Created with Sketch.</desc>
    <defs></defs>
    <g id="Page-1" stroke="none" stroke-width="1" fill="none" fill-rule="evenodd">
        <g id="Mobile">
            <g id="Group-7" transform="translate(86.000000, 0.000000)">
                <g id="Group-3">
                    <g id="Group-2">
                        <polygon id="Fill-1" fill="#242D3C" points="0 178 117 178 117 13 0 13"></polygon>
                        <polygon id="Fill-2" fill="#CCCBCA" points="0 13 117 13 117 0 0 0"></polygon>
                        <polygon id="Fill-3" fill="#F05424" points="15 28 36 28 36 25 15 25"></polygon>
                        <polygon id="Fill-4" fill="#FFFFFF" points="87 47 99 47 99 44 87 44"></polygon>
                        <polygon id="Fill-5" fill="#F05424" points="43 28 72 28 72 25 43 25"></polygon>
                        <polygon id="Fill-6" fill="#FFFFFF" points="43 47 82 47 82 44 43 44"></polygon>
                        <polygon id="Fill-7" fill="#FFFFFF" points="28 39 86 39 86 36 28 36"></polygon>
                        <polygon id="Fill-8" fill="#242D3C" points="15 57 36 57 36 54 15 54"></polygon>
                        <polygon id="Fill-9" fill="#FFFFFF" points="87 76 99 76 99 73 87 73"></polygon>
                        <polygon id="Fill-10" fill="#242D3C" points="43 57 72 57 72 54 43 54"></polygon>
                        <polygon id="Fill-11" fill="#FFFFFF" points="43 76 82 76 82 73 43 73"></polygon>
                        <polygon id="Fill-12" fill="#FFFFFF" points="28 67 86 67 86 64 28 64"></polygon>
                        <polygon id="Fill-13" fill="#242D3C" points="15 87 36 87 36 84 15 84"></polygon>
                        <polygon id="Fill-14" fill="#FFFFFF" points="87 107 99 107 99 104 87 104"></polygon>
                        <polygon id="Fill-15" fill="#242D3C" points="43 87 72 87 72 84 43 84"></polygon>
                        <polygon id="Fill-16" fill="#FFFFFF" points="43 107 82 107 82 104 43 104"></polygon>
                        <polygon id="Fill-17" fill="#FFFFFF" points="28 96 86 96 86 93 28 93"></polygon>
                        <polygon id="Fill-18" fill="#F05424" points="15 57 36 57 36 54 15 54"></polygon>
                        <polygon id="Fill-19" fill="#FFFFFF" points="87 76 99 76 99 73 87 73"></polygon>
                        <polygon id="Fill-20" fill="#F05424" points="43 57 72 57 72 54 43 54"></polygon>
                        <polygon id="Fill-21" fill="#FFFFFF" points="43 76 82 76 82 73 43 73"></polygon>
                        <polygon id="Fill-22" fill="#FFFFFF" points="28 67 86 67 86 64 28 64"></polygon>
                        <polygon id="Fill-23" fill="#F05424" points="15 87 36 87 36 84 15 84"></polygon>
                        <polygon id="Fill-24" fill="#FFFFFF" points="87 107 99 107 99 104 87 104"></polygon>
                        <polygon id="Fill-25" fill="#F05424" points="43 87 72 87 72 84 43 84"></polygon>
                        <polygon id="Fill-26" fill="#FFFFFF" points="43 107 82 107 82 104 43 104"></polygon>
                        <polygon id="Fill-27" fill="#FFFFFF" points="28 96 86 96 86 93 28 93"></polygon>
                        <polygon id="Fill-28" fill="#242D3C" points="15 115 36 115 36 112 15 112"></polygon>
                        <polygon id="Fill-29" fill="#FFFFFF" points="87 133 99 133 99 130 87 130"></polygon>
                        <polygon id="Fill-30" fill="#242D3C" points="43 115 72 115 72 112 43 112"></polygon>
                        <polygon id="Fill-31" fill="#FFFFFF" points="43 133 82 133 82 130 43 130"></polygon>
                        <polygon id="Fill-32" fill="#FFFFFF" points="28 125 86 125 86 122 28 122"></polygon>
                        <polygon id="Fill-33" fill="#242D3C" points="15 144 36 144 36 141 15 141"></polygon>
                        <polygon id="Fill-34" fill="#FFFFFF" points="87 164 99 164 99 161 87 161"></polygon>
                        <polygon id="Fill-35" fill="#242D3C" points="43 144 72 144 72 141 43 141"></polygon>
                        <polygon id="Fill-36" fill="#FFFFFF" points="43 164 82 164 82 161 43 161"></polygon>
                        <polygon id="Fill-37" fill="#FFFFFF" points="28 153 86 153 86 150 28 150"></polygon>
                    </g>
                    <path d="M230.707149,161 C225.921563,161 222,157.055307 222,152.222661 L222,43.7872598 C222,38.9585827 225.921563,35 230.707149,35 L281.282026,35 C286.094182,35 290,38.9585827 290,43.7872598 L290,152.222661 C290,157.055307 286.094182,161 281.282026,161 L230.707149,161 Z" id="Fill-1" fill="#242D3C"></path>
                    <path d="M265,150.938537 C265,152.077073 264.075463,153 262.938625,153 L252.065288,153 C250.936277,153 250,152.077073 250,150.938537 L250,150.070244 C250,148.936585 250.936277,148 252.065288,148 L262.938625,148 C264.075463,148 265,148.936585 265,150.070244 L265,150.938537 Z" id="Fill-3" fill="#474F59"></path>
                    <path d="M265,44.1731415 C265,44.6354916 264.632891,45 264.165749,45 L247.840078,45 C247.386533,45 247,44.6354916 247,44.1731415 L247,43.8278177 C247,43.3760192 247.386533,43 247.840078,43 L264.165749,43 C264.632891,43 265,43.3760192 265,43.8278177 L265,44.1731415 Z" id="Fill-5" fill="#474F59"></path>
                    <polygon id="Fill-7" fill="#F05424" points="227 142 286 142 286 54 227 54"></polygon>
                    <polygon id="Fill-9" fill="#242D3C" points="262 100 297 100 297 80 262 80"></polygon>
                    <polygon id="Fill-10" fill="#FFFFFF" points="278 88 283 91.0014523 278 94"></polygon>
                    <polygon id="Fill-11" fill="#242D3C" points="194 90 216 90 216 68 194 68"></polygon>
                    <polygon id="Fill-12" fill="#CCCBCA" points="219 79 230 79 230 77 219 77"></polygon>
                    <polygon id="Fill-13" fill="#FFFFFF" points="253 70 255 70 255 68 253 68"></polygon>
                    <path d="M248.398388,70 L251,70 L251,68 L248.398388,68 L248.398388,70 Z M243.189118,70 L245.795768,70 L245.795768,68 L243.189118,68 L243.189118,70 Z M238,70 L240.604635,70 L240.604635,68 L238,68 L238,70 Z" id="Fill-14" fill="#FFFFFF"></path>
                    <polygon id="Fill-15" fill="#FFFFFF" points="233 70 235 70 235 68 233 68"></polygon>
                    <path d="M233,75.5985894 L235,75.5985894 L235,73 L233,73 L233,75.5985894 Z M233,80.8008061 L235,80.8008061 L235,78.1991939 L233,78.1991939 L233,80.8008061 Z M233,86 L235,86 L235,83.3983878 L233,83.3983878 L233,86 Z" id="Fill-16" fill="#FFFFFF"></path>
                    <polygon id="Fill-17" fill="#FFFFFF" points="233 90 235 90 235 88 233 88"></polygon>
                    <path d="M248.396977,90 L251,90 L251,88 L248.396977,88 L248.396977,90 Z M243.186899,90 L245.794961,90 L245.794961,88 L243.186899,88 L243.186899,90 Z M238,90 L240.603023,90 L240.603023,88 L238,88 L238,90 Z" id="Fill-18" fill="#FFFFFF"></path>
                    <polygon id="Fill-19" fill="#FFFFFF" points="253 90 255 90 255 88 253 88"></polygon>
                    <path d="M253,75.5991937 L255,75.5991937 L255,73 L253,73 L253,75.5991937 Z M253,80.8026204 L255,80.8026204 L255,78.2004031 L253,78.2004031 L253,80.8026204 Z M253,86 L255,86 L255,83.4008063 L253,83.4008063 L253,86 Z" id="Fill-20" fill="#FFFFFF"></path>
                    <polygon id="Fill-21" fill="#474F59" points="320 124 331 124 331 113 320 113"></polygon>
                    <polygon id="Fill-22" fill="#CCCBCA" points="272 124 320 124 320 113 272 113"></polygon>
                    <polygon id="Fill-23" fill="#EE643C" points="180 117 191 117 191 106 180 106"></polygon>
                    <polygon id="Fill-24" fill="#FFFFFF" points="184 111 186 111 186 109 184 109"></polygon>
                    <polygon id="Fill-26" fill="#FFFFFF" points="194 111 210 111 210 109 194 109"></polygon>
                    <polygon id="Fill-27" fill="#FFFFFF" points="241 126 257 126 257 110 241 110"></polygon>
                    <path d="M249.487484,119 C246.999679,119 245,121.239401 245,124 L254,124 C254,121.239401 251.975289,119 249.487484,119" id="Fill-28" fill="#474F59"></path>
                    <path d="M253,114.998931 C253,116.659301 251.655375,118 249.984489,118 C248.345694,118 247,116.659301 247,114.998931 C247,113.347113 248.345694,112 249.984489,112 C251.655375,112 253,113.347113 253,114.998931" id="Fill-29" fill="#474F59"></path>
                    <polygon id="Fill-30" fill="#FFFFFF" points="301 158 316 158 316 143 301 143"></polygon>
                    <path d="M311.59355,147.821937 C310.553633,146.22937 308.499936,147.169534 308.499936,148.785166 C308.499936,147.169534 306.447173,146.22937 305.407256,147.821937 C304.332799,149.468322 305.391387,152.345927 308.499936,154 C311.609419,152.345927 312.666139,149.468322 311.59355,147.821937" id="Fill-31" fill="#F05424"></path>
                    <polygon id="Fill-32" fill="#CCCBCA" points="205 153 234 153 234 124 205 124"></polygon>
                    <path d="M220.006584,141.075924 C218.300883,141.075924 216.918294,139.704235 216.918294,137.996457 C216.918294,136.292728 218.300883,134.915978 220.006584,134.915978 C221.708233,134.915978 223.085758,136.292728 223.085758,137.996457 C223.085758,139.704235 221.708233,141.075924 220.006584,141.075924 L220.006584,141.075924 Z M229,138.68382 L229,137.314156 L227.064375,136.923401 C226.981318,136.392948 226.846604,135.883752 226.661246,135.395816 L228.148163,134.085878 L227.462439,132.910579 L225.585561,133.541252 C225.243205,133.128227 224.881605,132.75367 224.460244,132.417581 L225.093298,130.538721 L223.917337,129.864518 L222.599572,131.349587 C222.124529,131.159271 221.597828,131.024633 221.075179,130.945672 L220.68623,129 L219.315795,129 L218.928873,130.945672 C218.402172,131.024633 217.890665,131.159271 217.403466,131.349587 L216.098869,129.864518 L214.911766,130.538721 L215.545833,132.418593 C215.132576,132.754682 214.755782,133.128227 214.419504,133.543277 L212.544651,132.910579 L211.865005,134.085878 L213.355973,135.39784 C213.15846,135.884765 213.024759,136.394972 212.932587,136.923401 L211,137.314156 L211.001013,138.68382 L212.932587,139.072549 C213.024759,139.603003 213.160486,140.111186 213.356986,140.600135 L211.865005,141.910073 L212.544651,143.083347 L214.419504,142.45065 C214.755782,142.868736 215.133588,143.244306 215.545833,143.575333 L214.911766,145.451156 L216.098869,146.131432 L217.401441,144.64029 C217.890665,144.83263 218.401159,144.968281 218.928873,145.051291 L219.315795,147 L220.68623,147 L221.075179,145.051291 C221.597828,144.968281 222.124529,144.83263 222.599572,144.64029 L223.919363,146.131432 L225.093298,145.451156 L224.460244,143.575333 C224.881605,143.245318 225.241179,142.868736 225.584548,142.452674 L227.462439,143.083347 L228.148163,141.910073 L226.661246,140.60216 C226.846604,140.116248 226.981318,139.604016 227.064375,139.069512 L229,138.68382 Z" id="Fill-33" fill="#474F59"></path>
                    <path d="M300,61.5 C300,62.8807398 298.887354,64 297.500531,64 C296.127524,64 295,62.8807398 295,61.5 C295,60.1203231 296.127524,59 297.500531,59 C298.887354,59 300,60.1203231 300,61.5" id="Fill-36" fill="#353F49"></path>
                    <g id="Page-1" transform="translate(23.000000, 125.000000)">
                        <polygon id="Fill-1" fill="#CCCBCA" points="0 67 173 67 173 0 0 0"></polygon>
                        <polygon id="Fill-2" fill="#FFFFFF" points="6 15 15 15 15 6 6 6"></polygon>
                        <polygon id="Fill-3" fill="#FFFFFF" points="147 26 156 26 156 17 147 17"></polygon>
                        <polygon id="Fill-4" fill="#FFFFFF" points="136 26 145 26 145 17 136 17"></polygon>
                        <polygon id="Fill-5" fill="#FFFFFF" points="125 26 134 26 134 17 125 17"></polygon>
                        <polygon id="Fill-6" fill="#FFFFFF" points="113 26 122 26 122 17 113 17"></polygon>
                        <polygon id="Fill-7" fill="#FFFFFF" points="102 26 111 26 111 17 102 17"></polygon>
                        <polygon id="Fill-8" fill="#FFFFFF" points="91 26 100 26 100 17 91 17"></polygon>
                        <polygon id="Fill-9" fill="#FFFFFF" points="79 26 88 26 88 17 79 17"></polygon>
                        <polygon id="Fill-10" fill="#FFFFFF" points="68 26 77 26 77 17 68 17"></polygon>
                        <polygon id="Fill-11" fill="#FFFFFF" points="57 26 66 26 66 17 57 17"></polygon>
                        <polygon id="Fill-12" fill="#FFFFFF" points="45 26 54 26 54 17 45 17"></polygon>
                        <polygon id="Fill-13" fill="#FFFFFF" points="34 26 43 26 43 17 34 17"></polygon>
                        <polygon id="Fill-14" fill="#FFFFFF" points="23 26 32 26 32 17 23 17"></polygon>
                        <polygon id="Fill-15" fill="#FFFFFF" points="25 37 34 37 34 28 25 28"></polygon>
                        <polygon id="Fill-16" fill="#FFFFFF" points="20 49 29 49 29 40 20 40"></polygon>
                        <polygon id="Fill-17" fill="#FFFFFF" points="31 49 40 49 40 40 31 40"></polygon>
                        <polygon id="Fill-18" fill="#FFFFFF" points="43 49 52 49 52 40 43 40"></polygon>
                        <polygon id="Fill-19" fill="#FFFFFF" points="54 49 63 49 63 40 54 40"></polygon>
                        <polygon id="Fill-20" fill="#FFFFFF" points="65 49 74 49 74 40 65 40"></polygon>
                        <polygon id="Fill-21" fill="#FFFFFF" points="77 49 86 49 86 40 77 40"></polygon>
                        <polygon id="Fill-22" fill="#FFFFFF" points="88 49 97 49 97 40 88 40"></polygon>
                        <polygon id="Fill-23" fill="#FFFFFF" points="99 49 108 49 108 40 99 40"></polygon>
                        <polygon id="Fill-24" fill="#FFFFFF" points="111 49 120 49 120 40 111 40"></polygon>
                        <polygon id="Fill-25" fill="#FFFFFF" points="122 49 131 49 131 40 122 40"></polygon>
                        <polygon id="Fill-26" fill="#FFFFFF" points="133 49 142 49 142 40 133 40"></polygon>
                        <polygon id="Fill-27" fill="#FFFFFF" points="145 49 168 49 168 40 145 40"></polygon>
                        <polygon id="Fill-28" fill="#FFFFFF" points="37 37 46 37 46 28 37 28"></polygon>
                        <polygon id="Fill-29" fill="#FFFFFF" points="48 37 57 37 57 28 48 28"></polygon>
                        <polygon id="Fill-30" fill="#FFFFFF" points="59 37 68 37 68 28 59 28"></polygon>
                        <polygon id="Fill-31" fill="#FFFFFF" points="71 37 80 37 80 28 71 28"></polygon>
                        <polygon id="Fill-32" fill="#FFFFFF" points="82 37 91 37 91 28 82 28"></polygon>
                        <polygon id="Fill-33" fill="#FFFFFF" points="93 37 102 37 102 28 93 28"></polygon>
                        <polygon id="Fill-34" fill="#FFFFFF" points="105 37 114 37 114 28 105 28"></polygon>
                        <polygon id="Fill-35" fill="#FFFFFF" points="116 37 125 37 125 28 116 28"></polygon>
                        <polygon id="Fill-36" fill="#FFFFFF" points="127 37 136 37 136 28 127 28"></polygon>
                        <polygon id="Fill-37" fill="#FFFFFF" points="139 37 148 37 148 28 139 28"></polygon>
                        <polygon id="Fill-38" fill="#FFFFFF" points="150 37 159 37 159 28 150 28"></polygon>
                        <polygon id="Fill-39" fill="#FFFFFF" points="17 15 26 15 26 6 17 6"></polygon>
                        <polygon id="Fill-40" fill="#FFFFFF" points="28 15 37 15 37 6 28 6"></polygon>
                        <polygon id="Fill-41" fill="#FFFFFF" points="40 15 49 15 49 6 40 6"></polygon>
                        <polygon id="Fill-42" fill="#FFFFFF" points="51 15 60 15 60 6 51 6"></polygon>
                        <polygon id="Fill-43" fill="#FFFFFF" points="62 15 71 15 71 6 62 6"></polygon>
                        <polygon id="Fill-44" fill="#FFFFFF" points="74 15 83 15 83 6 74 6"></polygon>
                        <polygon id="Fill-45" fill="#FFFFFF" points="85 15 94 15 94 6 85 6"></polygon>
                        <polygon id="Fill-46" fill="#FFFFFF" points="96 15 105 15 105 6 96 6"></polygon>
                        <polygon id="Fill-47" fill="#FFFFFF" points="108 15 117 15 117 6 108 6"></polygon>
                        <polygon id="Fill-48" fill="#FFFFFF" points="119 15 128 15 128 6 119 6"></polygon>
                        <polygon id="Fill-49" fill="#FFFFFF" points="130 15 139 15 139 6 130 6"></polygon>
                        <polygon id="Fill-50" fill="#FFFFFF" points="142 15 151 15 151 6 142 6"></polygon>
                        <polygon id="Fill-51" fill="#FFFFFF" points="153 15 167 15 167 6 153 6"></polygon>
                        <polygon id="Fill-52" fill="#FFFFFF" points="6 26 20 26 20 17 6 17"></polygon>
                        <polygon id="Fill-53" fill="#FFFFFF" points="6 37 23 37 23 28 6 28"></polygon>
                        <polygon id="Fill-54" fill="#FFFFFF" points="6 49 17 49 17 40 6 40"></polygon>
                        <polygon id="Fill-55" fill="#FFFFFF" points="6 61 15 61 15 51 6 51"></polygon>
                        <polygon id="Fill-56" fill="#FFFFFF" points="17 61 26 61 26 51 17 51"></polygon>
                        <polygon id="Fill-57" fill="#FFFFFF" points="28 61 37 61 37 51 28 51"></polygon>
                        <polygon id="Fill-58" fill="#FFFFFF" points="40 61 52 61 52 51 40 51"></polygon>
                        <polygon id="Fill-59" fill="#FFFFFF" points="54 61 108 61 108 51 54 51"></polygon>
                        <polygon id="Fill-60" fill="#FFFFFF" points="111 61 123 61 123 51 111 51"></polygon>
                        <polygon id="Fill-61" fill="#FFFFFF" points="125 61 134 61 134 51 125 51"></polygon>
                        <polygon id="Fill-62" fill="#FFFFFF" points="136 62 145 62 145 57 136 57"></polygon>
                        <polygon id="Fill-63" fill="#FFFFFF" points="147 61 156 61 156 57 147 57"></polygon>
                        <polygon id="Fill-64" fill="#FFFFFF" points="147 55 156 55 156 51 147 51"></polygon>
                        <polygon id="Fill-65" fill="#FFFFFF" points="159 62 168 62 168 57 159 57"></polygon>
                        <polygon id="Fill-66" fill="#FFFFFF" points="161.808973 37 161.808973 25.6329536 159 25.6329536 159 17 168 17 168 37"></polygon>
                    </g>
                </g>
            </g>
        </g>
    </g>
</svg>