<?xml version="1.0" encoding="UTF-8" standalone="no"?>
<svg width="1046px" height="251px" viewBox="0 0 1046 251" version="1.1" xmlns="http://www.w3.org/2000/svg" xmlns:xlink="http://www.w3.org/1999/xlink">
    <!-- Generator: Sketch 46.1 (44463) - http://www.bohemiancoding.com/sketch -->
    <title>Mobile</title>
    <desc>Created with Sketch.</desc>
    <defs>
        <polygon id="path-1" points="15.2462284 0.0531736111 0.0745021053 0.0531736111 0.0745021053 143.599568 15.2462284 143.599568 15.2462284 0.0531736111"></polygon>
        <polygon id="path-3" points="0 186 245.101453 186 245.101453 0.0531736111 0 0.0531736111"></polygon>
        <polygon id="path-5" points="0 89.5063417 0 179 136.913474 179 136.913474 0.0126834286 0 0.0126834286"></polygon>
        <polygon id="path-7" points="0 57.4956522 0 0.344621179 56.6569509 0.344621179 56.6569509 57.4956522"></polygon>
    </defs>
    <g id="Page-1" stroke="none" stroke-width="1" fill="none" fill-rule="evenodd">
        <g id="Mobile">
            <g id="Group-4" transform="translate(52.000000, 34.000000)">
                <g id="Group" transform="translate(233.000000, 74.000000)" fill="#FFFFFF">
                    <path d="M10.041,5.014 C10.041,7.79 7.794,10.038 5.025,10.038 C2.247,10.038 0,7.79 0,5.014 C0,2.245 2.247,0 5.025,0 C7.794,0 10.041,2.245 10.041,5.014" id="Fill-41"></path>
                    <path d="M27.041,5.014 C27.041,7.79 24.794,10.038 22.025,10.038 C19.247,10.038 17,7.79 17,5.014 C17,2.245 19.247,0 22.025,0 C24.794,0 27.041,2.245 27.041,5.014" id="Fill-41"></path>
                    <path d="M44.041,5.014 C44.041,7.79 41.794,10.038 39.025,10.038 C36.247,10.038 34,7.79 34,5.014 C34,2.245 36.247,0 39.025,0 C41.794,0 44.041,2.245 44.041,5.014" id="Fill-41"></path>
                    <path d="M62.041,5.014 C62.041,7.79 59.794,10.038 57.025,10.038 C54.247,10.038 52,7.79 52,5.014 C52,2.245 54.247,0 57.025,0 C59.794,0 62.041,2.245 62.041,5.014" id="Fill-41"></path>
                    <path d="M79.041,5.014 C79.041,7.79 76.794,10.038 74.025,10.038 C71.247,10.038 69,7.79 69,5.014 C69,2.245 71.247,0 74.025,0 C76.794,0 79.041,2.245 79.041,5.014" id="Fill-41"></path>
                    <path d="M96.041,5.014 C96.041,7.79 93.794,10.038 91.025,10.038 C88.247,10.038 86,7.79 86,5.014 C86,2.245 88.247,0 91.025,0 C93.794,0 96.041,2.245 96.041,5.014" id="Fill-41"></path>
                    <path d="M113.041,5.014 C113.041,7.79 110.794,10.038 108.025,10.038 C105.247,10.038 103,7.79 103,5.014 C103,2.245 105.247,0 108.025,0 C110.794,0 113.041,2.245 113.041,5.014" id="Fill-41"></path>
                    <path d="M130.041,5.014 C130.041,7.79 127.794,10.038 125.025,10.038 C122.247,10.038 120,7.79 120,5.014 C120,2.245 122.247,0 125.025,0 C127.794,0 130.041,2.245 130.041,5.014" id="Fill-41"></path>
                    <path d="M148.041,5.014 C148.041,7.79 145.794,10.038 143.025,10.038 C140.247,10.038 138,7.79 138,5.014 C138,2.245 140.247,0 143.025,0 C145.794,0 148.041,2.245 148.041,5.014" id="Fill-41"></path>
                </g>
                <g id="Group" transform="translate(534.000000, 74.000000)" fill="#FFFFFF">
                    <path d="M10.041,5.014 C10.041,7.79 7.794,10.038 5.025,10.038 C2.247,10.038 0,7.79 0,5.014 C0,2.245 2.247,0 5.025,0 C7.794,0 10.041,2.245 10.041,5.014" id="Fill-41"></path>
                    <path d="M27.041,5.014 C27.041,7.79 24.794,10.038 22.025,10.038 C19.247,10.038 17,7.79 17,5.014 C17,2.245 19.247,0 22.025,0 C24.794,0 27.041,2.245 27.041,5.014" id="Fill-41"></path>
                    <path d="M44.041,5.014 C44.041,7.79 41.794,10.038 39.025,10.038 C36.247,10.038 34,7.79 34,5.014 C34,2.245 36.247,0 39.025,0 C41.794,0 44.041,2.245 44.041,5.014" id="Fill-41"></path>
                    <path d="M62.041,5.014 C62.041,7.79 59.794,10.038 57.025,10.038 C54.247,10.038 52,7.79 52,5.014 C52,2.245 54.247,0 57.025,0 C59.794,0 62.041,2.245 62.041,5.014" id="Fill-41"></path>
                    <path d="M79.041,5.014 C79.041,7.79 76.794,10.038 74.025,10.038 C71.247,10.038 69,7.79 69,5.014 C69,2.245 71.247,0 74.025,0 C76.794,0 79.041,2.245 79.041,5.014" id="Fill-41"></path>
                    <path d="M96.041,5.014 C96.041,7.79 93.794,10.038 91.025,10.038 C88.247,10.038 86,7.79 86,5.014 C86,2.245 88.247,0 91.025,0 C93.794,0 96.041,2.245 96.041,5.014" id="Fill-41"></path>
                    <path d="M113.041,5.014 C113.041,7.79 110.794,10.038 108.025,10.038 C105.247,10.038 103,7.79 103,5.014 C103,2.245 105.247,0 108.025,0 C110.794,0 113.041,2.245 113.041,5.014" id="Fill-41"></path>
                    <path d="M130.041,5.014 C130.041,7.79 127.794,10.038 125.025,10.038 C122.247,10.038 120,7.79 120,5.014 C120,2.245 122.247,0 125.025,0 C127.794,0 130.041,2.245 130.041,5.014" id="Fill-41"></path>
                    <path d="M148.041,5.014 C148.041,7.79 145.794,10.038 143.025,10.038 C140.247,10.038 138,7.79 138,5.014 C138,2.245 140.247,0 143.025,0 C145.794,0 148.041,2.245 148.041,5.014" id="Fill-41"></path>
                    <path d="M165.041,5.014 C165.041,7.79 162.794,10.038 160.025,10.038 C157.247,10.038 155,7.79 155,5.014 C155,2.245 157.247,0 160.025,0 C162.794,0 165.041,2.245 165.041,5.014" id="Fill-41"></path>
                    <path d="M182.041,5.014 C182.041,7.79 179.794,10.038 177.025,10.038 C174.247,10.038 172,7.79 172,5.014 C172,2.245 174.247,0 177.025,0 C179.794,0 182.041,2.245 182.041,5.014" id="Fill-41"></path>
                </g>
                <g id="Group" transform="translate(199.000000, 74.000000)" fill="#FFFFFF">
                    <path d="M10.041,5.014 C10.041,7.79 7.794,10.038 5.025,10.038 C2.247,10.038 0,7.79 0,5.014 C0,2.245 2.247,0 5.025,0 C7.794,0 10.041,2.245 10.041,5.014" id="Fill-41"></path>
                    <path d="M27.041,5.014 C27.041,7.79 24.794,10.038 22.025,10.038 C19.247,10.038 17,7.79 17,5.014 C17,2.245 19.247,0 22.025,0 C24.794,0 27.041,2.245 27.041,5.014" id="Fill-41"></path>
                    <path d="M44.041,5.014 C44.041,7.79 41.794,10.038 39.025,10.038 C36.247,10.038 34,7.79 34,5.014 C34,2.245 36.247,0 39.025,0 C41.794,0 44.041,2.245 44.041,5.014" id="Fill-41"></path>
                    <path d="M62.041,5.014 C62.041,7.79 59.794,10.038 57.025,10.038 C54.247,10.038 52,7.79 52,5.014 C52,2.245 54.247,0 57.025,0 C59.794,0 62.041,2.245 62.041,5.014" id="Fill-41"></path>
                    <path d="M79.041,5.014 C79.041,7.79 76.794,10.038 74.025,10.038 C71.247,10.038 69,7.79 69,5.014 C69,2.245 71.247,0 74.025,0 C76.794,0 79.041,2.245 79.041,5.014" id="Fill-41"></path>
                    <path d="M96.041,5.014 C96.041,7.79 93.794,10.038 91.025,10.038 C88.247,10.038 86,7.79 86,5.014 C86,2.245 88.247,0 91.025,0 C93.794,0 96.041,2.245 96.041,5.014" id="Fill-41"></path>
                    <path d="M113.041,5.014 C113.041,7.79 110.794,10.038 108.025,10.038 C105.247,10.038 103,7.79 103,5.014 C103,2.245 105.247,0 108.025,0 C110.794,0 113.041,2.245 113.041,5.014" id="Fill-41"></path>
                    <path d="M130.041,5.014 C130.041,7.79 127.794,10.038 125.025,10.038 C122.247,10.038 120,7.79 120,5.014 C120,2.245 122.247,0 125.025,0 C127.794,0 130.041,2.245 130.041,5.014" id="Fill-41"></path>
                    <path d="M148.041,5.014 C148.041,7.79 145.794,10.038 143.025,10.038 C140.247,10.038 138,7.79 138,5.014 C138,2.245 140.247,0 143.025,0 C145.794,0 148.041,2.245 148.041,5.014" id="Fill-41"></path>
                    <path d="M165.041,5.014 C165.041,7.79 162.794,10.038 160.025,10.038 C157.247,10.038 155,7.79 155,5.014 C155,2.245 157.247,0 160.025,0 C162.794,0 165.041,2.245 165.041,5.014" id="Fill-41"></path>
                    <path d="M182.041,5.014 C182.041,7.79 179.794,10.038 177.025,10.038 C174.247,10.038 172,7.79 172,5.014 C172,2.245 174.247,0 177.025,0 C179.794,0 182.041,2.245 182.041,5.014" id="Fill-41"></path>
                </g>
                <g id="Page-1" transform="translate(123.000000, 98.000000) scale(-1, 1) translate(-123.000000, -98.000000) translate(0.000000, 5.000000)">
                    <path d="M146,186 L245,186 L245,86 L146,186 Z M230.206541,122.089188 L230.206541,171.055091 L181.728402,171.055091 L230.206541,122.089188 Z" id="Fill-1" fill="#FFCA40"></path>
                    <polygon id="Fill-2" fill="#242D3C" points="242 181 245 181 245 180 242 180"></polygon>
                    <polygon id="Fill-3" fill="#242D3C" points="242 176 245 176 245 175 242 175"></polygon>
                    <polygon id="Fill-4" fill="#242D3C" points="242 171 245 171 245 170 242 170"></polygon>
                    <polygon id="Fill-5" fill="#242D3C" points="242 166 245 166 245 165 242 165"></polygon>
                    <polygon id="Fill-6" fill="#242D3C" points="242 161 245 161 245 160 242 160"></polygon>
                    <polygon id="Fill-7" fill="#242D3C" points="242 156 245 156 245 155 242 155"></polygon>
                    <polygon id="Fill-8" fill="#242D3C" points="242 151 245 151 245 150 242 150"></polygon>
                    <polygon id="Fill-9" fill="#242D3C" points="242 146 245 146 245 145 242 145"></polygon>
                    <polygon id="Fill-10" fill="#242D3C" points="242 141 245 141 245 140 242 140"></polygon>
                    <polygon id="Fill-11" fill="#242D3C" points="242 136 245 136 245 135 242 135"></polygon>
                    <polygon id="Fill-12" fill="#242D3C" points="242 131 245 131 245 130 242 130"></polygon>
                    <polygon id="Fill-13" fill="#242D3C" points="242 126 245 126 245 125 242 125"></polygon>
                    <polygon id="Fill-14" fill="#242D3C" points="242 121 245 121 245 120 242 120"></polygon>
                    <polygon id="Fill-15" fill="#242D3C" points="242 116 245 116 245 115 242 115"></polygon>
                    <polygon id="Fill-16" fill="#242D3C" points="242 111 245 111 245 110 242 110"></polygon>
                    <polygon id="Fill-17" fill="#242D3C" points="242 106 245 106 245 105 242 105"></polygon>
                    <polygon id="Fill-18" fill="#242D3C" points="242 101 245 101 245 100 242 100"></polygon>
                    <polygon id="Fill-19" fill="#242D3C" points="242 96 245 96 245 95 242 95"></polygon>
                    <polygon id="Fill-20" fill="#242D3C" points="242 91 245 91 245 90 242 90"></polygon>
                    <g id="Group-78">
                        <path d="M36.4139558,158.815394 L203.053061,158.815394 C211.431303,158.815394 218.224787,151.995089 218.224787,143.599568 L218.224787,30.4866444 L36.4139558,30.4866444 L36.4139558,158.815394 Z" id="Fill-21" fill="#FFFFFF"></path>
                        <g id="Group-25" transform="translate(202.978947, 0.000000)">
                            <mask id="mask-2" fill="white">
                                <use xlink:href="#path-1"></use>
                            </mask>
                            <g id="Clip-24"></g>
                            <path d="M15.2462284,15.2682208 C15.2462284,6.87529722 8.45144947,0.0523944444 0.0745021053,0.0523944444 L0.0745021053,128.382443 C8.45144947,128.382443 15.2462284,135.200151 15.2462284,143.599568 L15.2462284,15.2682208 Z" id="Fill-23" fill="#242D3C" mask="url(#mask-2)"></path>
                        </g>
                        <mask id="mask-4" fill="white">
                            <use xlink:href="#path-3"></use>
                        </mask>
                        <g id="Clip-27"></g>
                        <polygon id="Fill-26" fill="#16C6CC" mask="url(#mask-4)" points="68.7660632 143.6445 96.063 143.6445 96.063 129.542882 68.7660632 129.542882"></polygon>
                        <polygon id="Fill-28" fill="#242D3C" mask="url(#mask-4)" points="101.849179 131.490799 169.730937 131.490799 169.730937 129.542882 101.849179 129.542882"></polygon>
                        <polygon id="Fill-29" fill="#242D3C" mask="url(#mask-4)" points="101.849179 137.563104 169.730937 137.563104 169.730937 135.615188 101.849179 135.615188"></polygon>
                        <polygon id="Fill-30" fill="#242D3C" mask="url(#mask-4)" points="101.849179 143.645799 135.792 143.645799 135.792 141.697882 101.849179 141.697882"></polygon>
                        <polygon id="Fill-31" fill="#16C6CC" mask="url(#mask-4)" points="131.843053 94.1713125 141.553579 94.1713125 141.553579 73.0584931 131.843053 73.0584931"></polygon>
                        <path d="M99.5879211,71.8440319 C93.1129421,71.8440319 87.8511316,77.1215875 87.8511316,83.6146431 C87.8511316,90.1064 93.1129421,95.3865528 99.5879211,95.3865528 C106.056426,95.3865528 111.323416,90.1064 111.323416,83.6146431 C111.323416,77.1215875 106.056426,71.8440319 99.5879211,71.8440319" id="Fill-32" fill="#F15424" mask="url(#mask-4)"></path>
                        <path d="M132.814105,93.1973542 L140.582526,93.1973542 L140.582526,74.0324514 L132.814105,74.0324514 L132.814105,93.1973542 Z M130.872,95.1452708 L142.524632,95.1452708 L142.524632,72.0845347 L130.872,72.0845347 L130.872,95.1452708 Z" id="Fill-33" fill="#242D3C" mask="url(#mask-4)"></path>
                        <path d="M160.986284,98.881375 L168.759884,98.881375 L168.759884,91.0871111 L160.986284,91.0871111 L160.986284,98.881375 Z M159.044179,100.829292 L170.701989,100.829292 L170.701989,89.1391944 L159.044179,89.1391944 L159.044179,100.829292 Z" id="Fill-34" fill="#242D3C" mask="url(#mask-4)"></path>
                        <path d="M160.986284,76.1426944 L168.759884,76.1426944 L168.759884,68.3484306 L160.986284,68.3484306 L160.986284,76.1426944 Z M159.044179,78.0906111 L170.701989,78.0906111 L170.701989,66.4005139 L159.044179,66.4005139 L159.044179,78.0906111 Z" id="Fill-35" fill="#242D3C" mask="url(#mask-4)"></path>
                        <path d="M120.683716,119.626688 L128.458611,119.626688 L128.458611,111.829826 L120.683716,111.829826 L120.683716,119.626688 Z M118.741611,121.574604 L130.400716,121.574604 L130.400716,109.88191 L118.741611,109.88191 L118.741611,121.574604 Z" id="Fill-36" fill="#242D3C" mask="url(#mask-4)"></path>
                        <path d="M104.024337,119.626688 L111.800526,119.626688 L111.800526,111.829826 L104.024337,111.829826 L104.024337,119.626688 Z M102.082232,121.574604 L113.742632,121.574604 L113.742632,109.88191 L102.082232,109.88191 L102.082232,121.574604 Z" id="Fill-37" fill="#242D3C" mask="url(#mask-4)"></path>
                        <path d="M87.3675474,119.626688 L95.1411474,119.626688 L95.1411474,111.829826 L87.3675474,111.829826 L87.3675474,119.626688 Z M85.4254421,121.574604 L97.0832526,121.574604 L97.0832526,109.88191 L85.4254421,109.88191 L85.4254421,121.574604 Z" id="Fill-38" fill="#242D3C" mask="url(#mask-4)"></path>
                        <path d="M70.7081684,119.626688 L78.4843579,119.626688 L78.4843579,111.829826 L70.7081684,111.829826 L70.7081684,119.626688 Z M68.7660632,121.574604 L80.4264632,121.574604 L80.4264632,109.88191 L68.7660632,109.88191 L68.7660632,121.574604 Z" id="Fill-39" fill="#242D3C" mask="url(#mask-4)"></path>
                        <path d="M120.683716,55.3986806 L128.458611,55.3986806 L128.458611,47.6018194 L120.683716,47.6018194 L120.683716,55.3986806 Z M118.741611,57.3465972 L130.400716,57.3465972 L130.400716,45.6539028 L118.741611,45.6539028 L118.741611,57.3465972 Z" id="Fill-40" fill="#242D3C" mask="url(#mask-4)"></path>
                        <path d="M104.024337,55.3986806 L111.800526,55.3986806 L111.800526,47.6018194 L104.024337,47.6018194 L104.024337,55.3986806 Z M102.082232,57.3465972 L113.742632,57.3465972 L113.742632,45.6539028 L102.082232,45.6539028 L102.082232,57.3465972 Z" id="Fill-41" fill="#242D3C" mask="url(#mask-4)"></path>
                        <path d="M87.3675474,55.3986806 L95.1411474,55.3986806 L95.1411474,47.6018194 L87.3675474,47.6018194 L87.3675474,55.3986806 Z M85.4254421,57.3465972 L97.0832526,57.3465972 L97.0832526,45.6539028 L85.4254421,45.6539028 L85.4254421,57.3465972 Z" id="Fill-42" fill="#242D3C" mask="url(#mask-4)"></path>
                        <path d="M70.7081684,55.3986806 L78.4843579,55.3986806 L78.4843579,47.6018194 L70.7081684,47.6018194 L70.7081684,55.3986806 Z M68.7660632,57.3465972 L80.4264632,57.3465972 L80.4264632,45.6539028 L68.7660632,45.6539028 L68.7660632,57.3465972 Z" id="Fill-43" fill="#242D3C" mask="url(#mask-4)"></path>
                        <path d="M99.5879211,72.8179903 C93.6515526,72.8179903 88.8221842,77.6605111 88.8221842,83.6146431 C88.8221842,89.568775 93.6515526,94.4125944 99.5879211,94.4125944 C105.522995,94.4125944 110.352363,89.568775 110.352363,83.6146431 C110.352363,77.6605111 105.522995,72.8179903 99.5879211,72.8179903 M99.5879211,96.3605111 C92.5808053,96.3605111 86.8800789,90.644025 86.8800789,83.6146431 C86.8800789,76.5865597 92.5808053,70.8700736 99.5879211,70.8700736 C106.595037,70.8700736 112.294468,76.5865597 112.294468,83.6146431 C112.294468,90.644025 106.595037,96.3605111 99.5879211,96.3605111" id="Fill-44" fill="#242D3C" mask="url(#mask-4)"></path>
                        <polygon id="Fill-45" fill="#242D3C" mask="url(#mask-4)" points="90.2858842 64.1080757 90.2832947 56.3774437 92.2254 56.3774437 92.2279895 64.1080757"></polygon>
                        <polygon id="Fill-46" fill="#242D3C" mask="url(#mask-4)" points="106.942674 64.1084653 108.884779 64.1084653 108.884779 56.3778333 106.942674 56.3778333"></polygon>
                        <polygon id="Fill-47" fill="#242D3C" mask="url(#mask-4)" points="98.6168684 71.8440319 98.6155737 64.1082056 100.557679 64.1082056 100.558974 71.8440319"></polygon>
                        <polygon id="Fill-48" fill="#242D3C" mask="url(#mask-4)" points="125.543381 65.082034 73.6257284 65.082034 73.6244337 56.3774437 75.5665389 56.3774437 75.5678337 63.1341174 123.601276 63.1341174 123.601276 56.3774437 125.543381 56.3774437"></polygon>
                        <polygon id="Fill-49" fill="#242D3C" mask="url(#mask-4)" points="106.945393 110.853011 106.942803 103.119782 108.884908 103.119782 108.887498 110.853011"></polygon>
                        <polygon id="Fill-50" fill="#242D3C" mask="url(#mask-4)" points="90.2858842 110.853271 92.2279895 110.853271 92.2279895 103.120042 90.2858842 103.120042"></polygon>
                        <polygon id="Fill-51" fill="#242D3C" mask="url(#mask-4)" points="98.6131137 103.119782 98.6118189 95.3865528 100.553924 95.3865528 100.555219 103.119782"></polygon>
                        <polygon id="Fill-52" fill="#242D3C" mask="url(#mask-4)" points="125.543381 110.853011 123.601276 110.853011 123.601276 104.09374 75.5678337 104.09374 75.5678337 110.853011 73.6257284 110.853011 73.6257284 102.145824 125.543381 102.145824"></polygon>
                        <polygon id="Fill-53" fill="#242D3C" mask="url(#mask-4)" points="111.324063 84.5888611 131.843053 84.5888611 131.843053 82.6409444 111.324063 82.6409444"></polygon>
                        <polygon id="Fill-54" fill="#242D3C" mask="url(#mask-4)" points="160.015749 95.9570326 149.814518 95.9570326 149.814518 71.2730326 160.015749 71.2730326 160.015749 73.2209493 151.756623 73.2209493 151.756623 94.009116 160.015749 94.009116"></polygon>
                        <polygon id="Fill-55" fill="#242D3C" mask="url(#mask-4)" points="141.552284 84.5888611 150.785053 84.5888611 150.785053 82.6409444 141.552284 82.6409444"></polygon>
                        <polygon id="Fill-60" fill="#FFCA40" mask="url(#mask-4)" points="179.462179 120.843486 187.310874 120.843486 187.310874 13.1678472 179.462179 13.1678472"></polygon>
                        <polygon id="Fill-61" fill="#FFFFFF" mask="url(#mask-4)" points="179.462049 13.1681069 183.383807 0.0521347222 187.310744 13.1681069"></polygon>
                        <polygon id="Fill-62" fill="#242D3C" mask="url(#mask-4)" points="185.346628 6.60908194 183.383807 0.0523944444 181.42746 6.60908194"></polygon>
                        <polygon id="Fill-63" fill="#D9D8D7" mask="url(#mask-4)" points="179.462179 128.715667 187.310874 128.715667 187.310874 120.843486 179.462179 120.843486"></polygon>
                        <path d="M183.384196,136.589406 C184.397975,136.589406 185.400101,136.208913 186.16788,135.437538 C186.934364,134.66876 187.311133,133.662336 187.311133,132.648121 L187.311133,128.717225 L179.462438,128.717225 L179.462438,132.648121 C179.462438,133.662336 179.839206,134.66876 180.605691,135.437538 C181.376059,136.208913 182.378185,136.589406 183.384196,136.589406" id="Fill-64" fill="#F15424" mask="url(#mask-4)"></path>
                        <path d="M72.8251926,36.5760917 C72.8251926,56.7526125 56.5231611,73.1008278 36.4081295,73.1008278 C16.2956874,73.1008278 0.000129473684,56.7526125 0.000129473684,36.5760917 C0.000129473684,16.4112583 16.2956874,0.0526541667 36.4081295,0.0526541667 C56.5231611,0.0526541667 72.8251926,16.4112583 72.8251926,36.5760917" id="Fill-65" fill="#FFCA40" mask="url(#mask-4)"></path>
                        <polygon id="Fill-68" fill="#FFCA40" mask="url(#mask-4)" points="20.0256947 81.1358542 52.7864211 81.1358542 52.7864211 69.0886389 20.0256947 69.0886389"></polygon>
                        <polygon id="Fill-69" fill="#3E4959" mask="url(#mask-4)" points="18.2104737 103.925181 54.6081158 103.925181 54.6081158 81.1358542 18.2104737 81.1358542"></polygon>
                        <polygon id="Fill-70" fill="#242D3C" mask="url(#mask-4)" points="16.3253368 86.1978403 56.4893684 86.1978403 56.4893684 83.6681458 16.3253368 83.6681458"></polygon>
                        <polygon id="Fill-71" fill="#242D3C" mask="url(#mask-4)" points="16.3253368 91.2624236 56.4893684 91.2624236 56.4893684 88.7301319 16.3253368 88.7301319"></polygon>
                        <polygon id="Fill-72" fill="#242D3C" mask="url(#mask-4)" points="16.3253368 96.3257083 56.4893684 96.3257083 56.4893684 93.7947153 16.3253368 93.7947153"></polygon>
                        <polygon id="Fill-73" fill="#242D3C" mask="url(#mask-4)" points="16.3253368 101.390292 56.4893684 101.390292 56.4893684 98.8567014 16.3253368 98.8567014"></polygon>
                        <polygon id="Fill-74" fill="#CCCBCA" mask="url(#mask-4)" points="26.1614526 113.031042 46.6610211 113.031042 46.6610211 103.925181 26.1614526 103.925181"></polygon>
                    </g>
                </g>
                <g id="Page-1" transform="translate(376.000000, 9.000000)">
                    <g id="wheel2" transform="translate(91.000000, 0.000000)" fill="#242D3C">
                        <path d="M24,34.0000851 C18.4840851,34.0000851 14.0006809,29.5223588 14.0006809,23.9989789 C14.0006809,18.47662 18.4840851,14.0009361 24,14.0009361 C29.5251064,14.0009361 33.9993191,18.47662 33.9993191,23.9989789 C33.9993191,29.5223588 29.5251064,34.0000851 24,34.0000851 L24,34.0000851 Z M48,25.8237672 L48,22.1762328 L42.7935319,21.1254733 C42.5790638,19.726503 42.2073191,18.3745054 41.7038298,17.0899034 L45.6970213,13.5649066 L43.8811915,10.4350934 L38.8381277,12.1342807 C37.9516596,11.039612 36.9620426,10.0470578 35.8631489,9.17091435 L37.5666383,4.11215589 L34.4262128,2.3057482 L30.900766,6.31068374 C29.6251915,5.81032209 28.2760851,5.43760371 26.8789787,5.22724759 L25.824,0 L22.1892766,0 L21.138383,5.22520529 C19.7331064,5.43658256 18.3829787,5.80725865 17.0982128,6.30864145 L13.5799149,2.3057482 L10.434383,4.11215589 L12.1388936,9.17397779 C11.0471489,10.0511424 10.0514043,11.0416543 9.1812766,12.1353019 L4.12391489,10.4350934 L2.31217021,13.5649066 L6.30944681,17.1001149 C5.80902128,18.37859 5.43931915,19.726503 5.22995745,21.1224099 L0,22.1762328 L0.00612765957,25.8237672 L5.22995745,26.8673786 C5.43931915,28.2683913 5.80902128,29.6173254 6.31353191,30.8978428 L2.31217021,34.4279454 L4.12391489,37.560822 L9.1812766,35.856529 C10.0514043,36.9511977 11.0481702,37.9406884 12.1399149,38.817853 L10.434383,43.8745692 L13.5799149,45.6850615 L17.0941277,41.6852317 C18.3819574,42.1866145 19.7331064,42.5552483 21.138383,42.7686678 L22.1892766,48 L25.824,48 L26.8789787,42.7666255 C28.2760851,42.5542271 29.6262128,42.1825299 30.9130213,41.6852317 L34.4333617,45.6850615 L37.5666383,43.8745692 L35.8611064,38.8260222 C36.9620426,37.9468153 37.9516596,36.9511977 38.8381277,35.8575501 L43.8811915,37.560822 L45.6970213,34.4279454 L41.7017872,30.9080543 C42.2052766,29.62141 42.5790638,28.2683913 42.7935319,26.863294 L48,25.8237672 Z" id="Fill-1"></path>
                    </g>
                    <g id="Group-5" transform="translate(0.000000, 6.000000)">
                        <mask id="mask-6" fill="white">
                            <use xlink:href="#path-5"></use>
                        </mask>
                        <g id="Clip-4"></g>
                        <path d="M136.913474,61.1826091 C136.913474,27.4017291 109.33115,0.0126834286 75.3160075,0.0126834286 C41.2936541,0.0126834286 13.7103008,27.4017291 13.7103008,61.1826091 L13.6711579,68.5277463 L0,108.248358 L16.0516617,108.248358 L19.1480677,146.949181 L50.0657744,144.127118 L55.0843008,179.000409 L127.492406,164.748941 L119.87809,125.739215 L133.598692,80.9933063 C135.746398,74.7753577 136.913474,68.1124663 136.913474,61.1826091" id="Fill-3" fill="#D9D8D7" mask="url(#mask-6)"></path>
                    </g>
                    <path d="M123,66.5 C123,92.7319107 101.726773,114 75.5,114 C49.2680893,114 28,92.7319107 28,66.5 C28,40.2701443 49.2680893,19 75.5,19 C101.726773,19 123,40.2701443 123,66.5" id="Fill-6" fill="#FFFFFF"></path>
                    <g id="wheel" transform="translate(40.000000, 32.000000)" fill="#F05424">
                        <polygon id="Fill-8" points="38.3317928 0 32.6758696 0 31 8 40 8"></polygon>
                        <polygon id="Fill-10" points="19.6929183 3 15 5.60720065 17.5767704 13 25 8.85052589"></polygon>
                        <polygon id="Fill-12" points="5.60931174 15 3 19.6518193 8.84615385 25 13 17.5575073"></polygon>
                        <polygon id="Fill-14" points="0 31.6668691 0.0116648993 37.3451542 8 39 8 30"></polygon>
                        <polygon id="Fill-16" points="3 50.3258027 5.60931174 55 13 52.432277 8.84615385 45"></polygon>
                        <polygon id="Fill-18" points="15 64.3891925 19.6929183 67 25 61.1398502 17.5767704 57"></polygon>
                        <polygon id="Fill-20" points="32.6758696 70 38.3317928 70 40 62 31 62"></polygon>
                        <polygon id="Fill-22" points="50.3253138 67 55 64.3891925 52.4215481 57 45 61.1398502"></polygon>
                        <polygon id="Fill-24" points="64.4014391 55 67 50.3258027 61.1583055 45 57 52.432277"></polygon>
                        <polygon id="Fill-26" points="70 37.3453552 70 31.6677596 62 30 62 39"></polygon>
                        <polygon id="Fill-28" points="67 19.6518193 64.4014391 15 57 17.5575073 61.157292 25"></polygon>
                        <polygon id="Fill-30" points="55 5.60720065 50.3211297 3 45 8.85052589 52.4215481 13"></polygon>
                    </g>
                    <path d="M74.489426,75 C70.3564955,75 67,71.4229996 67,66.9967833 C67,62.5802171 70.3564955,59 74.489426,59 C78.6626385,59 82,62.5802171 82,66.9967833 C82,71.4229996 78.6626385,75 74.489426,75 M74.9755984,39 C59.5413584,39 47,51.5388639 47,67.0020777 C47,82.4673691 59.5413584,95 74.9755984,95 C90.4503347,95 103,82.4673691 103,67.0020777 C103,51.5388639 90.4503347,39 74.9755984,39" id="Fill-32" fill="#F15424"></path>
                    <path d="M75.4807091,73.2335792 C71.7893639,73.2335792 68.7591241,70.2058926 68.7591241,66.4921806 C68.7591241,62.7868093 71.7893639,59.7518245 75.4807091,59.7518245 C79.2022941,59.7518245 82.2367049,62.7868093 82.2367049,66.4921806 C82.2367049,70.2058926 79.2022941,73.2335792 75.4807091,73.2335792 M75.4807091,53 C68.0385819,53 62,59.0334788 62,66.4921806 C62,73.9675638 68.0385819,80 75.4807091,80 C82.9708029,80 89,73.9675638 89,66.4921806 C89,59.0334788 82.9708029,53 75.4807091,53" id="Fill-34" fill="#242D3C"></path>
                    <path d="M71.1251221,22.0728467 L70.799331,18.1779299 C72.1381288,18.0647953 73.4972885,18.004114 74.8401587,18 L74.8523759,21.9072587 C73.6133516,21.9113727 72.360074,21.965883 71.1251221,22.0728467 L71.1251221,22.0728467 Z M82.2814312,22.4955588 C81.0607326,22.2970589 79.8155997,22.1448414 78.5786116,22.0471342 L78.8820046,18.151189 C80.2238567,18.2581527 81.5748717,18.4216836 82.8994162,18.6386964 L82.2814312,22.4955588 Z M63.7826051,23.3255555 L62.8235575,19.538631 C64.1246857,19.2033411 65.4563569,18.9184475 66.7829375,18.6911497 L67.4284111,22.5438981 C66.2066945,22.7526829 64.9798874,23.0159781 63.7826051,23.3255555 L63.7826051,23.3255555 Z M89.5058489,24.3139408 C88.3330009,23.9117986 87.1306281,23.5549103 85.9313096,23.2535608 L86.8638866,19.4614937 C88.1680691,19.7885556 89.4742879,20.1762989 90.7499636,20.6134099 L89.5058489,24.3139408 Z M56.7485715,25.788805 L55.18172,22.2158077 C56.4064909,21.667619 57.6730038,21.1636556 58.9456253,20.7172881 L60.2141744,24.4085625 C59.0413264,24.8199611 57.8756051,25.2838131 56.7485715,25.788805 L56.7485715,25.788805 Z M96.3393173,27.3181795 C95.2530075,26.7257654 94.1249558,26.1724342 92.9857051,25.6725849 L94.5291404,22.0893026 C95.7671466,22.6333773 96.9929357,23.2350478 98.1739284,23.8768297 L96.3393173,27.3181795 Z M50.2134056,29.3936857 L48.0845644,26.1312943 C49.2044713,25.3856343 50.3712107,24.6770001 51.5532216,24.0249333 L53.4071765,27.453941 C52.3188306,28.054583 51.2447381,28.7076784 50.2134056,29.3936857 L50.2134056,29.3936857 Z M102.59247,31.4208525 C101.605934,30.651537 100.582746,29.9171904 99.5483596,29.2383827 L101.656839,25.9615924 C102.777764,26.697996 103.888508,27.4940524 104.956492,28.3271346 L102.59247,31.4208525 Z M44.3471296,34.0363194 L41.7204388,31.1678423 C42.7049388,30.2463094 43.7423799,29.3546028 44.8001828,28.5174065 L47.1866027,31.5926114 C46.2112656,32.3650124 45.2552723,33.1878097 44.3471296,34.0363194 L44.3471296,34.0363194 Z M108.090195,36.4985404 C107.248229,35.5831784 106.358412,34.6904433 105.443142,33.8450191 L108.053544,30.9611145 C109.047206,31.877505 110.013381,32.8473773 110.925596,33.8409051 L108.090195,36.4985404 Z M39.313657,39.5871157 L36.2563112,37.1927756 C37.0779156,36.1231391 37.9555154,35.0720155 38.8656943,34.0682028 L41.7184026,36.7073252 C40.8794905,37.6329721 40.0701033,38.601816 39.313657,39.5871157 L39.313657,39.5871157 Z M112.693013,42.418567 C112.010887,41.3756714 111.276839,40.3482032 110.512248,39.363932 L113.554323,36.9500504 C114.384072,38.0176299 115.180224,39.1325202 115.921399,40.264895 L112.693013,42.418567 Z M35.2473768,45.8959141 L31.8418417,44.0415346 C32.4791706,42.8474501 33.1745309,41.6646789 33.908579,40.5240762 L37.1512186,42.6561497 C36.474184,43.7062447 35.8338008,44.7964512 35.2473768,45.8959141 L35.2473768,45.8959141 Z M116.26857,49.0184298 C115.764612,47.8726846 115.208731,46.7372243 114.616198,45.6439324 L118.009516,43.7679545 C118.652954,44.9548396 119.255667,46.1869786 119.803403,47.4294025 L116.26857,49.0184298 Z M32.2663882,52.7971264 L28.6042926,51.5372181 C29.0369839,50.2536543 29.529743,48.9700905 30.0683164,47.7214956 L33.615367,49.2827535 C33.1185356,50.4336412 32.6654823,51.6164123 32.2663882,52.7971264 L32.2663882,52.7971264 Z M118.714039,56.1201991 C118.405556,54.9096585 118.043113,53.697061 117.636893,52.5163469 L121.290843,51.2327831 C121.732698,52.5153184 122.125683,53.8328225 122.460637,55.1482697 L118.714039,56.1201991 Z M30.4602838,60.096367 L26.6424193,59.4648701 C26.8582559,58.126796 27.1341603,56.7794654 27.4589333,55.4609327 L31.2126576,56.4071496 C30.912319,57.6207756 30.6588128,58.8621711 30.4602838,60.096367 L30.4602838,60.096367 Z M119.962227,63.5377167 C119.856344,62.2911788 119.697521,61.0353844 119.489829,59.8032455 L123.303622,59.1480931 C123.529639,60.4861672 123.701698,61.8509823 123.816743,63.2024268 L119.962227,63.5377167 Z M29.8687693,67.6033639 L26,67.6033639 L26,67.4994858 C26,66.1778676 26.0529411,64.840822 26.1557689,63.5253748 L30.0123211,63.8339238 C29.9166199,65.0475498 29.8687693,66.2796887 29.8687693,67.4994858 L29.8687693,67.6033639 Z M123.835068,71.5826174 L119.979534,71.2627549 C120.080326,70.022388 120.131231,68.7563086 120.131231,67.4994858 L120.130213,67.3071569 L123.998982,67.2793875 L124,67.4994858 C124,68.8622438 123.944005,70.2352868 123.835068,71.5826174 L123.835068,71.5826174 Z M26.6770346,75.7470002 C26.4561075,74.4109831 26.2860853,73.0471966 26.1730765,71.6906095 L30.0275925,71.3635476 C30.1314384,72.613171 30.2882254,73.8699939 30.4918448,75.1000758 L26.6770346,75.7470002 Z M122.513578,79.641917 L118.762908,78.6874721 C119.065283,77.4728176 119.320825,76.2324506 119.523427,75.0003117 L123.339255,75.6390081 C123.120364,76.9770822 122.842423,78.3233843 122.513578,79.641917 L122.513578,79.641917 Z M28.6735232,83.6653958 C28.2347233,82.379775 27.843774,81.0612423 27.5128924,79.7457951 L31.2615263,78.7820938 C31.5669555,79.9926343 31.9263438,81.2062603 32.3305284,82.3890314 L28.6735232,83.6653958 Z M119.887905,87.3762116 L116.344927,85.8056972 C116.842777,84.6609805 117.298884,83.4792379 117.701033,82.2964668 L121.360074,83.5635746 C120.92331,84.8491954 120.427497,86.1317307 119.887905,87.3762116 L119.887905,87.3762116 Z M31.938561,91.1374238 C31.2951235,89.9433392 30.6944462,88.7091432 30.1518004,87.4687763 L33.6917243,85.892091 C34.190592,87.0337222 34.7434187,88.170211 35.3359513,89.2676169 L31.938561,91.1374238 Z M116.032371,94.563346 L112.793804,92.42613 C113.471857,91.378092 114.115294,90.2889141 114.705791,89.1894512 L118.106235,91.0510301 C117.465852,92.2461431 116.768456,93.4278858 116.032371,94.563346 L116.032371,94.563346 Z M36.3784828,97.9656129 C35.5548422,96.9021474 34.7607264,95.7852 34.0195516,94.6466543 L37.2509921,92.4981248 C37.9341353,93.5482199 38.6661472,94.577745 39.4256477,95.5589308 L36.3784828,97.9656129 Z M111.059985,101.010991 L108.215421,98.3636411 C109.050261,97.4472506 109.860666,96.4814923 110.625257,95.4900215 L113.677513,97.8905326 C112.847763,98.9673686 111.967109,100.016435 111.059985,101.010991 L111.059985,101.010991 Z M41.8650086,103.966891 C40.8774543,103.049472 39.9133163,102.079599 39.0000831,101.081958 L41.8405743,98.4284364 C42.6825407,99.3489409 43.5703214,100.242704 44.4825365,101.088129 L41.8650086,103.966891 Z M105.115315,106.548417 L102.735004,103.467041 C103.711359,102.697726 104.66837,101.876986 105.578549,101.030533 L108.20015,103.902095 C107.212595,104.8226 106.174136,105.712249 105.115315,106.548417 L105.115315,106.548417 Z M48.2525504,108.980812 C47.127553,108.238237 46.0188452,107.440124 44.9569698,106.606013 L47.3301544,103.520523 C48.3085458,104.28881 49.3307154,105.025214 50.3671383,105.708136 L48.2525504,108.980812 Z M98.3520954,111.025463 L96.504249,107.592341 C97.5895406,106.996842 98.6656693,106.345803 99.7031104,105.658768 L101.823807,108.92733 C100.697791,109.674019 99.5290158,110.379567 98.3520954,111.025463 L98.3520954,111.025463 Z M55.3721041,112.867501 C54.1381703,112.321369 52.9133994,111.717641 51.7324067,111.071745 L53.5721083,107.63451 C54.6604542,108.230009 55.7885059,108.786426 56.9236843,109.288332 L55.3721041,112.867501 Z M90.952565,114.316652 L89.6921607,110.623321 C90.8589,110.217065 92.0256394,109.75527 93.1608178,109.250278 L94.7195246,112.827389 C93.4866089,113.374549 92.2190779,113.876456 90.952565,114.316652 L90.952565,114.316652 Z M63.0302313,115.512794 C61.729103,115.181618 60.4218662,114.790789 59.1472085,114.351621 L60.39845,110.653147 C61.5723161,111.058375 62.7746889,111.418349 63.9719712,111.721755 L63.0302313,115.512794 Z M83.1111804,116.325306 L82.4738515,112.470501 C83.6965863,112.263773 84.9244115,112.003563 86.1216938,111.6981 L87.0715785,115.486053 C85.7714683,115.818257 84.4387791,116.101094 83.1111804,116.325306 L83.1111804,116.325306 Z M71.0100771,116.838526 C69.668225,116.728477 68.31721,116.560832 66.9936836,116.341762 L67.6218496,112.4849 C68.840512,112.687514 70.0856448,112.841788 71.3226329,112.943609 L71.0100771,116.838526 Z M75.0509049,117 L75.0488687,113.092741 C76.2899291,113.091713 77.5442249,113.038231 78.7740863,112.935381 L79.0947869,116.830298 C77.7590434,116.941376 76.3988655,116.998972 75.0509049,117 L75.0509049,117 Z" id="Fill-36" fill="#242D3C"></path>
                    <g id="wheel3" transform="translate(128.000000, 41.000000)" fill="#242D3C">
                        <path d="M15,21.2505172 C11.5531034,21.2505172 8.75068966,18.4526272 8.75068966,15 C8.75068966,11.5473728 11.5531034,8.75155151 15,8.75155151 C18.4531034,8.75155151 21.2503448,11.5473728 21.2503448,15 C21.2503448,18.4526272 18.4531034,21.2505172 15,21.2505172 L15,21.2505172 Z M30,16.1419115 L30,13.8601572 L26.7455172,13.2043856 C26.6131034,12.3303682 26.3803448,11.4853124 26.0648276,10.6816301 L28.5610345,8.47848573 L27.4262069,6.52358295 L24.2741379,7.58481589 C23.7196552,6.90008275 23.102069,6.28051303 22.4141379,5.73127844 L23.4796552,2.57033513 L21.5172414,1.44083575 L19.3127586,3.94393877 C18.5151724,3.6326024 17.6741379,3.39987588 16.7989655,3.26644601 L16.1410345,0 L13.8682759,0 L13.2113793,3.26644601 C12.3331034,3.39884154 11.4889655,3.63053372 10.6872414,3.94393877 L8.48689655,1.44083575 L6.52137931,2.57033513 L7.58689655,5.73334712 C6.90413793,6.28258171 6.28241379,6.90111709 5.73931034,7.58585023 L2.57793103,6.52358295 L1.44517241,8.47848573 L3.94344828,10.6888705 C3.63103448,11.4873811 3.39931034,12.3303682 3.26896552,13.2023169 L0,13.8601572 L0.00413793103,16.1419115 L3.26896552,16.791477 C3.39931034,17.6685974 3.63103448,18.5115846 3.94551724,19.3111295 L1.44517241,21.5173769 L2.57793103,23.476417 L5.73931034,22.4110468 C6.28241379,23.0947456 6.90517241,23.7132809 7.58689655,24.2614812 L6.52137931,27.4224245 L8.48689655,28.5539926 L10.6841379,26.0539926 C11.487931,26.3663633 12.3331034,26.5980554 13.2113793,26.730451 L13.8682759,30 L16.1410345,30 L16.7989655,26.7294166 C17.6741379,26.5970211 18.5162069,26.3642946 19.3210345,26.0539926 L21.5213793,28.5539926 L23.4796552,27.4224245 L22.4131034,24.2666529 C23.102069,23.7174183 23.7196552,23.0947456 24.2741379,22.4120811 L27.4262069,23.476417 L28.5610345,21.5173769 L26.0627586,19.3194042 C26.3793103,18.5136533 26.6131034,17.6685974 26.7455172,16.7904427 L30,16.1419115 Z" id="Fill-38"></path>
                    </g>
                </g>
                <g id="Page-1" transform="translate(671.000000, 0.000000)">
                    <g id="Group-53">
                        <polygon id="Fill-21" fill="#E6E5E5" points="132.856533 211.504588 75.4636058 211.504588 80.6716444 182.247137 127.632417 182.247137"></polygon>
                        <polygon id="Fill-22" fill="#CCCBCA" points="132.856533 211.504588 127.632417 182.247137 80.6716444 182.247137 118.22921 211.504588"></polygon>
                        <path d="M148.209646,215.799873 L60.097028,215.799873 L60.097028,214.188413 C60.097028,213.50726 60.3482357,212.818069 60.8777816,212.285604 C61.4073275,211.767204 62.1046802,211.50499 62.7738976,211.50499 L145.524738,211.50499 C146.201994,211.50499 146.90839,211.767204 147.435927,212.285604 C147.942361,212.818069 148.209646,213.50726 148.209646,214.188413 L148.209646,215.799873 Z" id="Fill-23" fill="#FFFFFF"></path>
                        <path d="M207.498589,163.333373 L207.498589,177.226694 C207.498589,179.991494 205.223652,182.246936 202.445295,182.246936 L5.86921739,182.246936 C3.11799034,182.246936 0.835014493,179.991494 0.835014493,177.226694 L0.835014493,163.333373 L207.498589,163.333373 Z" id="Fill-24" fill="#FFFFFF"></path>
                        <path d="M207.498589,163.333373 L207.498589,31.4096149 C207.498589,28.6538567 205.229681,26.3763126 202.443285,26.3763126 L5.86117874,26.3763126 C3.10191304,26.3763126 0.845062802,28.6538567 0.845062802,31.4096149 L0.845062802,163.333373 L207.498589,163.333373 Z" id="Fill-25" fill="#242D3C"></path>
                        <polygon id="Fill-26" fill="#FFFFFF" points="11.2601353 152.886809 197.042319 152.886809 197.042319 36.8144372 11.2601353 36.8144372"></polygon>
                        <polygon id="Fill-27" fill="#CCCBCA" points="22.892058 141.256967 26.9113816 141.256967 26.9113816 137.238363 22.892058 137.238363"></polygon>
                        <path d="M22.892058,60.5362605 L26.9113816,60.5362605 L26.9113816,56.4995721 L22.892058,56.4995721 L22.892058,60.5362605 Z M22.892058,68.6106419 L26.9113816,68.6106419 L26.9113816,64.5729488 L22.892058,64.5729488 L22.892058,68.6106419 Z M22.892058,76.6840186 L26.9113816,76.6840186 L26.9113816,72.6473302 L22.892058,72.6473302 L22.892058,76.6840186 Z M22.892058,84.7584 L26.9113816,84.7584 L26.9113816,80.7217116 L22.892058,80.7217116 L22.892058,84.7584 Z M22.892058,92.8317767 L26.9113816,92.8317767 L26.9113816,88.7940837 L22.892058,88.7940837 L22.892058,92.8317767 Z M22.892058,100.905153 L26.9113816,100.905153 L26.9113816,96.8684651 L22.892058,96.8684651 L22.892058,100.905153 Z M22.892058,108.979535 L26.9113816,108.979535 L26.9113816,104.942847 L22.892058,104.942847 L22.892058,108.979535 Z M22.892058,117.053916 L26.9113816,117.053916 L26.9113816,113.016223 L22.892058,113.016223 L22.892058,117.053916 Z M22.892058,125.127293 L26.9113816,125.127293 L26.9113816,121.090605 L22.892058,121.090605 L22.892058,125.127293 Z M22.892058,133.20067 L26.9113816,133.20067 L26.9113816,129.163981 L22.892058,129.163981 L22.892058,133.20067 Z" id="Fill-28" fill="#CCCBCA"></path>
                        <polygon id="Fill-29" fill="#CCCBCA" points="22.892058 52.4628837 26.9113816 52.4628837 26.9113816 48.4442791 22.892058 48.4442791"></polygon>
                        <path d="M30.87343,52.4628837 L34.8344734,52.4628837 L34.8344734,48.4442791 L30.87343,48.4442791 L30.87343,52.4628837 Z M38.7955169,52.4628837 L42.7565604,52.4628837 L42.7565604,48.4442791 L38.7955169,48.4442791 L38.7955169,52.4628837 Z M46.7176039,52.4628837 L50.6786473,52.4628837 L50.6786473,48.4442791 L46.7176039,48.4442791 L46.7176039,52.4628837 Z M54.638686,52.4628837 L58.5997295,52.4628837 L58.5997295,48.4442791 L54.638686,48.4442791 L54.638686,52.4628837 Z M62.5617778,52.4628837 L66.5218164,52.4628837 L66.5218164,48.4442791 L62.5617778,48.4442791 L62.5617778,52.4628837 Z M70.4838647,52.4628837 L74.4439034,52.4628837 L74.4439034,48.4442791 L70.4838647,48.4442791 L70.4838647,52.4628837 Z M78.4059517,52.4628837 L82.3659903,52.4628837 L82.3659903,48.4442791 L78.4059517,48.4442791 L78.4059517,52.4628837 Z M86.3280386,52.4628837 L90.2880773,52.4628837 L90.2880773,48.4442791 L86.3280386,48.4442791 L86.3280386,52.4628837 Z M94.2491208,52.4628837 L98.2101643,52.4628837 L98.2101643,48.4442791 L94.2491208,48.4442791 L94.2491208,52.4628837 Z M102.171208,52.4628837 L106.132251,52.4628837 L106.132251,48.4442791 L102.171208,48.4442791 L102.171208,52.4628837 Z M110.093295,52.4628837 L114.054338,52.4628837 L114.054338,48.4442791 L110.093295,48.4442791 L110.093295,52.4628837 Z M118.015382,52.4628837 L121.976425,52.4628837 L121.976425,48.4442791 L118.015382,48.4442791 L118.015382,52.4628837 Z M125.937469,52.4628837 L129.897507,52.4628837 L129.897507,48.4442791 L125.937469,48.4442791 L125.937469,52.4628837 Z M133.859556,52.4628837 L137.819594,52.4628837 L137.819594,48.4442791 L133.859556,48.4442791 L133.859556,52.4628837 Z M141.781643,52.4628837 L145.741681,52.4628837 L145.741681,48.4442791 L141.781643,48.4442791 L141.781643,52.4628837 Z M149.703729,52.4628837 L153.664773,52.4628837 L153.664773,48.4442791 L149.703729,48.4442791 L149.703729,52.4628837 Z M157.625816,52.4628837 L161.58686,52.4628837 L161.58686,48.4442791 L157.625816,48.4442791 L157.625816,52.4628837 Z M165.546899,52.4628837 L169.507942,52.4628837 L169.507942,48.4442791 L165.546899,48.4442791 L165.546899,52.4628837 Z M173.468986,52.4628837 L177.430029,52.4628837 L177.430029,48.4442791 L173.468986,48.4442791 L173.468986,52.4628837 Z" id="Fill-30" fill="#CCCBCA"></path>
                        <polygon id="Fill-31" fill="#CCCBCA" points="181.391072 52.4628837 185.410396 52.4628837 185.410396 48.4442791 181.391072 48.4442791"></polygon>
                        <path d="M181.391072,60.5362605 L185.410396,60.5362605 L185.410396,56.4995721 L181.391072,56.4995721 L181.391072,60.5362605 Z M181.391072,68.6096372 L185.410396,68.6096372 L185.410396,64.5729488 L181.391072,64.5729488 L181.391072,68.6096372 Z M181.391072,76.6840186 L185.410396,76.6840186 L185.410396,72.6463256 L181.391072,72.6463256 L181.391072,76.6840186 Z M181.391072,84.7573953 L185.410396,84.7573953 L185.410396,80.720707 L181.391072,80.720707 L181.391072,84.7573953 Z M181.391072,92.8317767 L185.410396,92.8317767 L185.410396,88.7950884 L181.391072,88.7950884 L181.391072,92.8317767 Z M181.391072,100.905153 L185.410396,100.905153 L185.410396,96.8674605 L181.391072,96.8674605 L181.391072,100.905153 Z M181.391072,108.979535 L185.410396,108.979535 L185.410396,104.942847 L181.391072,104.942847 L181.391072,108.979535 Z M181.391072,117.052912 L185.410396,117.052912 L185.410396,113.016223 L181.391072,113.016223 L181.391072,117.052912 Z M181.391072,125.127293 L185.410396,125.127293 L185.410396,121.0896 L181.391072,121.0896 L181.391072,125.127293 Z M181.391072,133.20067 L185.410396,133.20067 L185.410396,129.163981 L181.391072,129.163981 L181.391072,133.20067 Z" id="Fill-32" fill="#CCCBCA"></path>
                        <polygon id="Fill-33" fill="#CCCBCA" points="181.391072 141.256967 185.410396 141.256967 185.410396 137.238363 181.391072 137.238363"></polygon>
                        <path d="M30.8724251,141.256967 L34.8334686,141.256967 L34.8334686,137.238363 L30.8724251,137.238363 L30.8724251,141.256967 Z M38.7945121,141.256967 L42.7555556,141.256967 L42.7555556,137.238363 L38.7945121,137.238363 L38.7945121,141.256967 Z M46.716599,141.256967 L50.6776425,141.256967 L50.6776425,137.238363 L46.716599,137.238363 L46.716599,141.256967 Z M54.6376812,141.256967 L58.5987246,141.256967 L58.5987246,137.238363 L54.6376812,137.238363 L54.6376812,141.256967 Z M62.5607729,141.256967 L66.5208116,141.256967 L66.5208116,137.238363 L62.5607729,137.238363 L62.5607729,141.256967 Z M70.4828599,141.256967 L74.4428986,141.256967 L74.4428986,137.238363 L70.4828599,137.238363 L70.4828599,141.256967 Z M78.4049469,141.256967 L82.3649855,141.256967 L82.3649855,137.238363 L78.4049469,137.238363 L78.4049469,141.256967 Z M86.3270338,141.256967 L90.2880773,141.256967 L90.2880773,137.238363 L86.3270338,137.238363 L86.3270338,141.256967 Z M94.2481159,141.256967 L98.2091594,141.256967 L98.2091594,137.238363 L94.2481159,137.238363 L94.2481159,141.256967 Z M102.170203,141.256967 L106.131246,141.256967 L106.131246,137.238363 L102.170203,137.238363 L102.170203,141.256967 Z M110.09229,141.256967 L114.053333,141.256967 L114.053333,137.238363 L110.09229,137.238363 L110.09229,141.256967 Z M118.015382,141.256967 L121.97542,141.256967 L121.97542,137.238363 L118.015382,137.238363 L118.015382,141.256967 Z M125.936464,141.256967 L129.896502,141.256967 L129.896502,137.238363 L125.936464,137.238363 L125.936464,141.256967 Z M133.858551,141.256967 L137.818589,141.256967 L137.818589,137.238363 L133.858551,137.238363 L133.858551,141.256967 Z M141.780638,141.256967 L145.740676,141.256967 L145.740676,137.238363 L141.780638,137.238363 L141.780638,141.256967 Z M149.702725,141.256967 L153.663768,141.256967 L153.663768,137.238363 L149.702725,137.238363 L149.702725,141.256967 Z M157.624812,141.256967 L161.585855,141.256967 L161.585855,137.238363 L157.624812,137.238363 L157.624812,141.256967 Z M165.545894,141.256967 L169.506937,141.256967 L169.506937,137.238363 L165.545894,137.238363 L165.545894,141.256967 Z M173.467981,141.256967 L177.429024,141.256967 L177.429024,137.238363 L173.467981,137.238363 L173.467981,141.256967 Z" id="Fill-34" fill="#CCCBCA"></path>
                        <path d="M133.148939,118.70285 C133.148939,123.077101 129.570736,126.654664 125.196707,126.654664 L54.3440696,126.654664 C49.9760696,126.654664 46.389828,123.077101 46.389828,118.70285 L46.389828,8.82214326 C46.389828,4.44688744 49.9760696,0.870329302 54.3440696,0.870329302 L125.196707,0.870329302 C129.570736,0.870329302 133.148939,4.44688744 133.148939,8.82214326 L133.148939,118.70285 Z" id="Fill-35" fill="#242D3C"></path>
                        <path d="M89.7606415,11.9685098 C88.0142454,11.9685098 86.6285836,10.5750586 86.6285836,8.81792372 C86.6285836,7.10197953 88.0142454,5.67537488 89.7606415,5.67537488 C91.4959845,5.67537488 92.9208348,7.10197953 92.9208348,8.81792372 C92.9208348,10.5750586 91.4959845,11.9685098 89.7606415,11.9685098" id="Fill-36" fill="#3E4959"></path>
                        <path d="M89.7684792,9.92293953 C89.1605565,9.92293953 88.6732135,9.43568372 88.6732135,8.82083721 C88.6732135,8.21905116 89.1605565,7.72275349 89.7684792,7.72275349 C90.3784116,7.72275349 90.8737932,8.21905116 90.8737932,8.82083721 C90.8737932,9.43568372 90.3784116,9.92293953 89.7684792,9.92293953" id="Fill-37" fill="#FFFFFF"></path>
                        <polygon id="Fill-38" fill="#FFFFFF" points="53.6258164 110.750735 125.932444 110.750735 125.932444 16.7736558 53.6258164 16.7736558"></polygon>
                        <path d="M99.8991845,118.70285 C99.8991845,117.313418 98.7566918,116.171129 97.3690203,116.171129 L82.1789913,116.171129 C80.7893101,116.171129 79.6478222,117.313418 79.6478222,118.70285 C79.6478222,120.091278 80.7893101,121.234571 82.1789913,121.234571 L97.3690203,121.234571 C98.7566918,121.234571 99.8991845,120.091278 99.8991845,118.70285" id="Fill-39" fill="#3E4959"></path>
                        <polygon id="Fill-40" fill="#FFBB33" points="59.4749372 36.8144372 87.7237488 36.8144372 87.7237488 22.6217302 59.4749372 22.6217302"></polygon>
                        <polygon id="Fill-41" fill="#FFBB33" points="91.8234589 36.8144372 120.07428 36.8144372 120.07428 22.6217302 91.8234589 22.6217302"></polygon>
                        <polygon id="Fill-42" fill="#16C6CC" points="59.4749372 70.8580465 87.7237488 70.8580465 87.7237488 42.8976 59.4749372 42.8976"></polygon>
                        <polygon id="Fill-43" fill="#16C6CC" points="91.8234589 70.8580465 120.07428 70.8580465 120.07428 42.8976 91.8234589 42.8976"></polygon>
                        <polygon id="Fill-44" fill="#16C6CC" points="59.4739324 104.903665 120.07428 104.903665 120.07428 76.9432186 59.4739324 76.9432186"></polygon>
                        <path d="M156.159969,58.3178902 L122.582539,58.3178902 C119.407273,58.3178902 116.800742,60.9189321 116.800742,64.1026716 L116.800742,135.478113 C116.800742,138.657834 119.407273,141.257872 122.582539,141.257872 L156.159969,141.257872 C159.337244,141.257872 161.933728,138.657834 161.933728,135.478113 L161.933728,64.1026716 C161.933728,60.9189321 159.337244,58.3178902 156.159969,58.3178902" id="Fill-45" fill="#242D3C"></path>
                        <polygon id="Fill-46" fill="#FFFFFF" points="120.07428 128.72093 158.675865 128.72093 158.675865 70.8580465 120.07428 70.8580465"></polygon>
                        <path d="M135.802296,136.781749 C134.935127,136.781749 134.239784,136.077488 134.239784,135.223535 L134.239784,134.754363 C134.239784,133.899405 134.935127,133.199163 135.802296,133.199163 L142.953677,133.199163 C143.801755,133.199163 144.496093,133.899405 144.496093,134.754363 L144.496093,135.223535 C144.496093,136.077488 143.801755,136.781749 142.953677,136.781749 L135.802296,136.781749 Z" id="Fill-47" fill="#3E4959"></path>
                        <path d="M140.824441,64.5871144 C140.824441,65.388826 140.188383,66.03984 139.383513,66.03984 C138.577639,66.03984 137.917465,65.388826 137.917465,64.5871144 C137.917465,63.7854028 138.577639,63.1263516 139.383513,63.1263516 C140.188383,63.1263516 140.824441,63.7854028 140.824441,64.5871144" id="Fill-48" fill="#3E4959"></path>
                        <path d="M139.955061,64.5871144 C139.955061,64.9035795 139.695814,65.1637842 139.384317,65.1637842 C139.048703,65.1637842 138.785438,64.9035795 138.785438,64.5871144 C138.785438,64.2676353 139.048703,64.0014028 139.384317,64.0014028 C139.695814,64.0014028 139.955061,64.2676353 139.955061,64.5871144" id="Fill-49" fill="#242D3C"></path>
                        <polygon id="Fill-50" fill="#FFBB33" points="122.996329 83.5367442 155.735729 83.5367442 155.735729 73.7835907 122.996329 73.7835907"></polygon>
                        <polygon id="Fill-51" fill="#16C6CC" points="122.996329 104.665563 155.735729 104.665563 155.735729 86.4703256 122.996329 86.4703256"></polygon>
                        <polygon id="Fill-52" fill="#16C6CC" points="122.996329 125.795386 155.735729 125.795386 155.735729 107.59814 122.996329 107.59814"></polygon>
                    </g>
                </g>
                <g id="Page-1" transform="translate(181.000000, 13.000000)">
                    <g id="Group-3">
                        <mask id="mask-8" fill="white">
                            <use xlink:href="#path-7"></use>
                        </mask>
                        <g id="Clip-2"></g>
                        <path d="M56.6571258,28.9200661 C56.6571258,44.7035045 43.9748006,57.495758 28.3316227,57.495758 C12.6818006,57.495758 -0.000174846626,44.7035045 -0.000174846626,28.9200661 C-0.000174846626,13.1359223 12.6818006,0.344374265 28.3316227,0.344374265 C43.9748006,0.344374265 56.6571258,13.1359223 56.6571258,28.9200661" id="Fill-1" fill="#FFFFFF" mask="url(#mask-8)"></path>
                    </g>
                    <path d="M47,29 C47,39.4938603 38.711652,48 28.4987918,48 C18.2797179,48 10,39.4938603 10,29 C10,18.5054305 18.2797179,10 28.4987918,10 C38.711652,10 47,18.5054305 47,29" id="Fill-4" fill="#16C6CC"></path>
                    <path d="M37,29.0007106 C37,33.9711037 33.194706,38 28.50151,38 C23.8032806,38 20,33.9711037 20,29.0007106 C20,24.0274751 23.8032806,20 28.50151,20 C33.194706,20 37,24.0274751 37,29.0007106" id="Fill-6" fill="#242D3C"></path>
                    <path d="M27,23 C27,25.7614903 24.7593709,28 22.0007634,28 C19.2356668,28 17,25.7614903 17,23 C17,20.2362193 19.2356668,18 22.0007634,18 C24.7593709,18 27,20.2362193 27,23" id="Fill-8" fill="#FFFFFF"></path>
                </g>
            </g>
        </g>
    </g>
</svg>