<?xml version="1.0" encoding="UTF-8" standalone="no"?>
<svg width="44px" height="44px" viewBox="0 0 44 44" version="1.1" xmlns="http://www.w3.org/2000/svg" xmlns:xlink="http://www.w3.org/1999/xlink">
    <!-- Generator: Sketch 47.1 (45422) - http://www.bohemiancoding.com/sketch -->
    <title>button</title>
    <desc>Created with Sketch.</desc>
    <defs></defs>
    <g id="New-NAV-&amp;-MY-STUFF--1130" stroke="none" stroke-width="1" fill="none" fill-rule="evenodd">
        <g id="Action-sheets" transform="translate(-319.000000, -26.000000)">
            <g id="App">
                <g id="top-bar">
                    <g id="navigation" transform="translate(0.000000, 20.000000)">
                        <g id="ios/dark/button/circle/white/normal" transform="translate(319.000000, 6.000000)">
                            <g id="object">
                                <circle id="bg" fill="#FFFFFF" cx="22" cy="22" r="22"></circle>
                                <g id="common-actions/plus_18" transform="translate(13.000000, 13.000000)" fill="#000000">
                                    <g transform="translate(1.000000, 1.000000)" id="icon">
                                        <g>
                                            <path d="M9,8 L9,0.5 C9,0.223857625 8.77614237,-5.07265313e-17 8.5,0 C8.22385763,5.07265313e-17 8,0.223857625 8,0.5 L8,0.5 L8,8 L0.5,8 L0.5,8 C0.223857625,8 -3.38176876e-17,8.22385763 0,8.5 C3.38176876e-17,8.77614237 0.223857625,9 0.5,9 L8,9 L8,16.5 C8,16.7761424 8.22385763,17 8.5,17 C8.77614237,17 9,16.7761424 9,16.5 L9,9 L16.5,9 C16.7761424,9 17,8.77614237 17,8.5 C17,8.22385763 16.7761424,8 16.5,8 L9,8 Z" id="fill"></path>
                                        </g>
                                    </g>
                                </g>
                            </g>
                        </g>
                    </g>
                </g>
            </g>
        </g>
    </g>
</svg>