<?xml version="1.0" encoding="UTF-8" standalone="no"?>
<svg width="18px" height="18px" viewBox="0 0 18 18" version="1.1" xmlns="http://www.w3.org/2000/svg" xmlns:xlink="http://www.w3.org/1999/xlink">
    <!-- Generator: Sketch 45.1 (43504) - http://www.bohemiancoding.com/sketch -->
    <title>icon</title>
    <desc>Created with Sketch.</desc>
    <defs></defs>
    <g id="Deck-specific-screens-Mobile" stroke="none" stroke-width="1" fill="none" fill-rule="evenodd">
        <g id="8" transform="translate(-151.000000, -39.000000)" fill="#FFFFFF">
            <g id="top-bar">
                <g id="navigation" transform="translate(0.000000, 20.000000)">
                    <g id="input" transform="translate(68.000000, 10.000000)">
                        <g id="icon" transform="translate(83.000000, 9.000000)">
                            <path d="M1,7.5 C1,3.916 3.916,1 7.5,1 C11.084,1 14,3.916 14,7.5 C14,11.084 11.084,14 7.5,14 C3.916,14 1,11.084 1,7.5 M17.854,17.146 L13.14,12.433 C14.295,11.114 15,9.391 15,7.5 C15,3.358 11.642,0 7.5,0 C3.358,0 0,3.358 0,7.5 C0,11.642 3.358,15 7.5,15 C9.391,15 11.114,14.295 12.433,13.14 L17.146,17.854 C17.244,17.951 17.372,18 17.5,18 C17.628,18 17.756,17.951 17.854,17.854 C18.049,17.658 18.049,17.342 17.854,17.146" id="Fill-1"></path>
                        </g>
                    </g>
                </g>
            </g>
        </g>
    </g>
</svg>