<?xml version="1.0" encoding="UTF-8"?>
<svg width="28px" height="28px" viewBox="0 0 28 28" version="1.1" xmlns="http://www.w3.org/2000/svg" xmlns:xlink="http://www.w3.org/1999/xlink">
    <!-- Generator: Sketch 51.2 (57519) - http://www.bohemiancoding.com/sketch -->
    <title>info_28_w</title>
    <desc>Created with Sketch.</desc>
    <defs></defs>
    <g id="Page-1" stroke="none" stroke-width="1" fill="none" fill-rule="evenodd">
        <g id="1.0" transform="translate(-290.000000, -374.000000)" fill="#FFFFFF">
            <g id="App">
                <g id="activities" transform="translate(0.000000, 72.000000)">
                    <g id="activites" transform="translate(20.000000, 162.000000)">
                        <g id="activity" transform="translate(232.000000, 120.000000)">
                            <g transform="translate(18.000000, 0.000000)" id="alerts-and-notifications/info_28_w">
                                <g transform="translate(20.000000, 20.000000)">
                                    <g id="info_28_w">
                                        <path d="M13.9998,0 C21.7318,0 27.9998,6.268 27.9998,14 C27.9998,21.732 21.7318,28 13.9998,28 C6.2678,28 -0.0002,21.732 -0.0002,14 C-0.0002,6.268 6.2678,0 13.9998,0 Z M13.9998,27 C21.1678,27 26.9998,21.168 26.9998,14 C26.9998,6.832 21.1678,1 13.9998,1 C6.8318,1 0.9998,6.832 0.9998,14 C0.9998,21.168 6.8318,27 13.9998,27 Z M13.9998,8 C14.2758,8 14.4998,8.224 14.4998,8.5 C14.4998,8.776 14.2758,9 13.9998,9 C13.7238,9 13.4998,8.776 13.4998,8.5 C13.4998,8.224 13.7238,8 13.9998,8 Z M13.9998,11 C14.2748,11 14.4998,11.225 14.4998,11.5 L14.4998,19.5 C14.4998,19.775 14.2748,20 13.9998,20 C13.7248,20 13.4998,19.775 13.4998,19.5 L13.4998,11.5 C13.4998,11.225 13.7248,11 13.9998,11 Z" id="fill"></path>
                                    </g>
                                </g>
                            </g>
                        </g>
                    </g>
                </g>
            </g>
        </g>
    </g>
</svg>