
<svg width="26px" height="26px" viewBox="0 0 26 26" version="1.1" xmlns="http://www.w3.org/2000/svg" xmlns:xlink="http://www.w3.org/1999/xlink">
    <!-- Generator: Sketch 51 (57462) - http://www.bohemiancoding.com/sketch -->
    <desc>Created with Sketch.</desc>
    <defs></defs>
    <g id="@1X" stroke="none" stroke-width="1" fill="none" fill-rule="evenodd">
        <g id="28" transform="translate(-485.000000, -101.000000)">
            <g id="people_28" transform="translate(484.000000, 100.000000)">
                <rect id="bounds" x="0" y="0" width="28" height="28"></rect>
                <g id="icon" transform="translate(1.000000, 0.000000)" fill="#FFFFFF">
                    <path d="M24.923,25.8945 C24.892,25.9335 24.823,25.9995 24.718,25.9995 L1.282,25.9995 C1.177,25.9995 1.109,25.9335 1.077,25.8945 C1.008,25.8075 0.984,25.6925 1.011,25.5785 L1.928,21.6645 C2.571,18.9175 4.865,16.9995 7.505,16.9995 L18.495,16.9995 C21.135,16.9995 23.429,18.9175 24.072,21.6645 L24.989,25.5785 C25.016,25.6925 24.992,25.8075 24.923,25.8945 M6,8.9995 C6,5.1405 9.14,1.9995 13,1.9995 C16.86,1.9995 20,5.1405 20,8.9995 C20,12.8595 16.86,15.9995 13,15.9995 C9.14,15.9995 6,12.8595 6,8.9995 M25.963,25.3505 L25.046,21.4355 C24.296,18.2355 21.602,15.9995 18.495,15.9995 L16.864,15.9995 C19.328,14.6345 21,12.0095 21,8.9995 C21,4.5885 17.411,0.9995 13,0.9995 C8.589,0.9995 5,4.5885 5,8.9995 C5,12.0095 6.673,14.6345 9.136,15.9995 L7.505,15.9995 C4.398,15.9995 1.704,18.2355 0.954,21.4355 L0.037,25.3505 C-0.059,25.7635 0.034,26.1875 0.294,26.5155 C0.537,26.8235 0.898,26.9995 1.282,26.9995 L24.718,26.9995 C25.103,26.9995 25.463,26.8235 25.707,26.5155 C25.966,26.1875 26.06,25.7635 25.963,25.3505" id="fill"></path>
                </g>
            </g>
        </g>
    </g>
</svg>