<?xml version="1.0" encoding="UTF-8"?>
<svg width="26px" height="18px" viewBox="0 0 26 18" version="1.1" xmlns="http://www.w3.org/2000/svg" xmlns:xlink="http://www.w3.org/1999/xlink">
    <!-- Generator: Sketch 51.2 (57519) - http://www.bohemiancoding.com/sketch -->
    <title>camera_28_w</title>
    <desc>Created with Sketch.</desc>
    <defs></defs>
    <g id="Symbols" stroke="none" stroke-width="1" fill="none" fill-rule="evenodd">
        <g id="core/buttons/activities/small/call/normal" transform="translate(-21.000000, -25.000000)" fill="#FFFFFF">
            <g id="activity">
                <g id="activities/camera_28_w" transform="translate(20.000000, 20.000000)">
                    <g id="camera_28_w" transform="translate(1.000000, 5.000000)">
                        <g id="icon">
                            <path d="M25.002,13.7251 C25.002,13.8931 24.882,13.9601 24.831,13.9821 C24.779,14.0031 24.647,14.0391 24.528,13.9211 L20,9.3931 L20,8.6121 L24.528,4.0841 C24.647,3.9661 24.779,4.0021 24.831,4.0231 C24.882,4.0451 25.002,4.1121 25.002,4.2801 L25.002,13.7251 Z M19,15.0071 C19,16.1061 18.106,17.0001 17.006,17.0001 L2.994,17.0001 C1.898,17.0001 1,16.1001 1,15.0071 L1,2.9931 C1,1.8931 1.895,1.0001 2.994,1.0001 L17.006,1.0001 C18.103,1.0001 19,1.9001 19,2.9931 L19,15.0071 Z M25.213,3.1001 C24.734,2.9021 24.188,3.0101 23.821,3.3771 L20,7.1981 L20,2.9931 C20,1.3531 18.659,0.0001 17.006,0.0001 L2.994,0.0001 C1.344,0.0001 0,1.3401 0,2.9931 L0,15.0071 C0,16.6471 1.341,18.0001 2.994,18.0001 L17.006,18.0001 C18.656,18.0001 20,16.6601 20,15.0071 L20,10.8081 L23.821,14.6281 C24.065,14.8731 24.391,15.0031 24.723,15.0031 C24.888,15.0031 25.054,14.9711 25.213,14.9061 C25.692,14.7071 26.002,14.2441 26.002,13.7251 L26.002,4.2801 C26.002,3.7621 25.692,3.2981 25.213,3.1001 Z" id="fill"></path>
                        </g>
                    </g>
                </g>
            </g>
        </g>
    </g>
</svg>