<?xml version="1.0" encoding="UTF-8"?>
<svg width="26px" height="26px" viewBox="0 0 26 26" version="1.1" xmlns="http://www.w3.org/2000/svg" xmlns:xlink="http://www.w3.org/1999/xlink">
    <!-- Generator: Sketch 51.2 (57519) - http://www.bohemiancoding.com/sketch -->
    <title>meetings_28_w</title>
    <desc>Created with Sketch.</desc>
    <defs></defs>
    <g id="Symbols" stroke="none" stroke-width="1" fill="none" fill-rule="evenodd">
        <g id="core/buttons/activities/small/schedule/normal" transform="translate(-21.000000, -21.000000)" fill="#FFFFFF">
            <g id="activity">
                <g id="activities/meetings_28_w" transform="translate(20.000000, 20.000000)">
                    <g id="meetings_28_w" transform="translate(1.000000, 1.000000)">
                        <g id="icon">
                            <path d="M23,25 L3,25 C1.897,25 1,24.103 1,23 L1,20 L25,20 L25,23 C25,24.103 24.103,25 23,25 M3,4 L23,4 C24.103,4 25,4.897 25,6 L25,19 L1,19 L1,6 C1,4.897 1.897,4 3,4 M23,3 L20,3 L20,0.5 C20,0.224 19.776,0 19.5,0 C19.224,0 19,0.224 19,0.5 L19,3 L7,3 L7,0.5 C7,0.224 6.776,0 6.5,0 C6.224,0 6,0.224 6,0.5 L6,3 L3,3 C1.343,3 0,4.343 0,6 L0,23 C0,24.657 1.343,26 3,26 L23,26 C24.657,26 26,24.657 26,23 L26,6 C26,4.343 24.657,3 23,3" id="fill"></path>
                        </g>
                    </g>
                </g>
            </g>
        </g>
    </g>
</svg>