<?xml version="1.0" encoding="UTF-8"?>
<svg width="26px" height="26px" viewBox="0 0 26 26" version="1.1" xmlns="http://www.w3.org/2000/svg" xmlns:xlink="http://www.w3.org/1999/xlink">
    <!-- Generator: Sketch 51.2 (57519) - http://www.bohemiancoding.com/sketch -->
    <title>whiteboard_28_w</title>
    <desc>Created with Sketch.</desc>
    <defs></defs>
    <g id="Symbols" stroke="none" stroke-width="1" fill="none" fill-rule="evenodd">
        <g id="core/buttons/activities/small/whiteboard/normal" transform="translate(-21.000000, -21.000000)" fill="#FFFFFF">
            <g id="activity">
                <g id="activities/whiteboard_28_w" transform="translate(20.000000, 20.000000)">
                    <g id="whiteboard_28_w" transform="translate(1.000000, 1.000000)">
                        <g id="icon">
                            <path d="M24.1168405,6.148 L21.7358405,8.529 L17.4708405,4.264 L19.8518405,1.883 C20.9918405,0.744 22.9778405,0.744 24.1168405,1.883 C24.6858405,2.453 24.9998405,3.21 24.9998405,4.016 C24.9998405,4.821 24.6858405,5.578 24.1168405,6.148 L24.1168405,6.148 Z M6.60284049,23.662 L1.15384049,24.846 L2.33884049,19.397 L16.7638405,4.971 L21.0288405,9.236 L6.60284049,23.662 Z M24.8238405,1.176 C24.0658405,0.418 23.0568405,0 21.9848405,0 C20.9118405,0 19.9038405,0.418 19.1448405,1.176 L1.52784049,18.794 C1.45984049,18.861 1.41284049,18.947 1.39284049,19.041 L0.0118404913,25.394 C-0.0251595087,25.56 0.0258404913,25.733 0.146840491,25.854 C0.241840491,25.948 0.368840491,26 0.499840491,26 C0.535840491,26 0.570840491,25.996 0.605840491,25.988 L6.95984049,24.607 C7.05384049,24.587 7.13884049,24.54 7.20684049,24.473 L24.8238405,6.855 C25.5828405,6.097 25.9998405,5.088 25.9998405,4.016 C25.9998405,2.943 25.5828405,1.935 24.8238405,1.176 L24.8238405,1.176 Z" id="fill"></path>
                        </g>
                    </g>
                </g>
            </g>
        </g>
    </g>
</svg>