<?xml version="1.0" encoding="UTF-8"?>
<svg width="28px" height="24px" viewBox="0 0 28 24" version="1.1" xmlns="http://www.w3.org/2000/svg" xmlns:xlink="http://www.w3.org/1999/xlink">
    <!-- Generator: Sketch 51.2 (57519) - http://www.bohemiancoding.com/sketch -->
    <title>files_28_w</title>
    <desc>Created with Sketch.</desc>
    <defs></defs>
    <g id="Symbols" stroke="none" stroke-width="1" fill="none" fill-rule="evenodd">
        <g id="core/buttons/activities/small/files/normal" transform="translate(-20.000000, -22.000000)" fill="#FFFFFF">
            <g id="activity">
                <g id="activities/files_28_w" transform="translate(20.000000, 20.000000)">
                    <g id="files_28_w" transform="translate(0.000000, 2.000000)">
                        <g id="icon">
                            <path d="M27,7.9167 L27,7.9997 L1,7.9997 L1,2.9997 C1,1.8977 1.897,0.9997 3,0.9997 L8.172,0.9997 C8.566,0.9997 8.953,1.1597 9.232,1.4387 L10.056,2.2627 C10.528,2.7347 11.155,2.9947 11.823,2.9957 L25,2.9997 C26.103,2.9997 27,3.8977 27,4.9997 L27,7.9167 Z M27,20.9997 C27,22.1027 26.103,22.9997 25,22.9997 L3,22.9997 C1.897,22.9997 1,22.1027 1,20.9997 L1,8.9997 L27,8.9997 L27,20.9997 Z M25,1.9997 L11.823,1.9957 C11.423,1.9947 11.046,1.8387 10.763,1.5557 L9.939,0.7317 C9.467,0.2597 8.839,-0.0003 8.172,-0.0003 L3,-0.0003 C1.343,-0.0003 0,1.3427 0,2.9997 L0,20.9997 C0,22.6567 1.343,23.9997 3,23.9997 L25,23.9997 C26.657,23.9997 28,22.6567 28,20.9997 L28,4.9997 C28,3.3427 26.657,1.9997 25,1.9997 L25,1.9997 Z" id="fill"></path>
                        </g>
                    </g>
                </g>
            </g>
        </g>
    </g>
</svg>