
<svg width="40px" height="40px" viewBox="0 0 40 40" version="1.1" xmlns="http://www.w3.org/2000/svg" xmlns:xlink="http://www.w3.org/1999/xlink">
    <!-- Generator: Sketch 51 (57462) - http://www.bohemiancoding.com/sketch -->
    <desc>Created with Sketch.</desc>
    <defs></defs>
    <g id="Page-1" stroke="none" stroke-width="1" fill="none" fill-rule="evenodd">
        <circle id="Oval" cx="20" cy="20" r="20"></circle>
        <g id="icon" transform="translate(14.000000, 14.000000)" fill="#444444">
            <path d="M6.47141012,6.00008333 L11.9020014,0.56949209 C12.0326662,0.438827239 12.0326662,0.228163498 11.9020014,0.0974986459 C11.7720032,-0.0324995486 11.5613394,-0.0324995486 11.4306746,0.0974986459 L6.00008333,5.52875655 L0.568825433,0.0974986459 C0.438827239,-0.0324995486 0.228163498,-0.0324995486 0.0974986459,0.0974986459 C-0.0324995486,0.228163498 -0.0324995486,0.438827239 0.0974986459,0.56949209 L5.52875655,6.00008333 L0.0974986459,11.4306746 C-0.0324995486,11.5613394 -0.0324995486,11.7720032 0.0974986459,11.902668 C0.162831072,11.9673338 0.24816322,12 0.333495368,12 C0.418827516,12 0.504159664,11.9673338 0.568825433,11.902668 L6.00008333,6.47141012 L11.4306746,11.902668 C11.496007,11.9673338 11.5813391,12 11.6666713,12 C11.7520034,12 11.8373356,11.9673338 11.9020014,11.902668 C12.0326662,11.7720032 12.0326662,11.5613394 11.9020014,11.4306746 L6.47141012,6.00008333 Z" id="fill"></path>
        </g>
    </g>
</svg>