
<svg width="40px" height="40px" viewBox="0 0 40 40" version="1.1" xmlns="http://www.w3.org/2000/svg" xmlns:xlink="http://www.w3.org/1999/xlink">
    <!-- Generator: Sketch 51 (57462) - http://www.bohemiancoding.com/sketch -->
    <desc>Created with Sketch.</desc>
    <defs></defs>
    <g id="Page-1" stroke="none" stroke-width="1" fill="none" fill-rule="evenodd">
        <circle id="Oval" cx="20" cy="20" r="20"></circle>
        <path d="M25.7,25.75 C25.9,25.4166667 26,25.1666667 26,25 C26,24.8 25.9,24.5666667 25.7,24.3 C25.4333333,24.1 25.2,24 25,24 C24.8333333,24 24.5833333,24.1 24.25,24.3 C24.0833333,24.5333333 24,24.7666667 24,25 C24,25.2333333 24.0833333,25.4833333 24.25,25.75 C24.5166667,25.9166667 24.7666667,26 25,26 C25.2333333,26 25.4666667,25.9166667 25.7,25.75 Z M14.3,24.3 C14.1,24.4666667 14,24.7 14,25 C14,25.3 14.1,25.55 14.3,25.75 C14.5333333,25.9166667 14.7666667,26 15,26 C15.2666667,26 15.4833333,25.9166667 15.65,25.75 C15.8833333,25.5166667 16,25.2666667 16,25 C16,24.7333333 15.8833333,24.5 15.65,24.3 C15.45,24.1 15.2333333,24 15,24 C14.8,24 14.5666667,24.1 14.3,24.3 Z M19.25,25.75 C19.5166667,25.9166667 19.7666667,26 20,26 C20.2333333,26 20.4666667,25.9166667 20.7,25.75 C20.9,25.4166667 21,25.1666667 21,25 C21,24.8 20.9,24.5666667 20.7,24.3 C20.4333333,24.1 20.2,24 20,24 C19.8333333,24 19.5833333,24.1 19.25,24.3 C19.0833333,24.5333333 19,24.7666667 19,25 C19,25.2333333 19.0833333,25.4833333 19.25,25.75 Z M15.65,20.75 C15.8833333,20.5166667 16,20.2666667 16,20 C16,19.7333333 15.8833333,19.5 15.65,19.3 C15.45,19.1 15.2333333,19 15,19 C14.8,19 14.5666667,19.1 14.3,19.3 C14.1,19.4666667 14,19.7 14,20 C14,20.3 14.1,20.55 14.3,20.75 C14.5333333,20.9166667 14.7666667,21 15,21 C15.2666667,21 15.4833333,20.9166667 15.65,20.75 Z M15,14 C14.7333333,14 14.5,14.1166667 14.3,14.35 C14.1,14.4833333 14,14.7 14,15 C14,15.3 14.1,15.5333333 14.3,15.7 C14.4666667,15.9 14.7,16 15,16 C15.3,16 15.5166667,15.9 15.65,15.7 C15.8833333,15.5 16,15.2666667 16,15 C16,14.7 15.8833333,14.4833333 15.65,14.35 C15.5166667,14.1166667 15.3,14 15,14 Z M25.7,20.75 C25.9,20.4166667 26,20.1666667 26,20 C26,19.8 25.9,19.5666667 25.7,19.3 C25.4333333,19.1 25.2,19 25,19 C24.8333333,19 24.5833333,19.1 24.25,19.3 C24.0833333,19.5333333 24,19.7666667 24,20 C24,20.2333333 24.0833333,20.4833333 24.25,20.75 C24.5166667,20.9166667 24.7666667,21 25,21 C25.2333333,21 25.4666667,20.9166667 25.7,20.75 Z M20.7,20.75 C20.9,20.4166667 21,20.1666667 21,20 C21,19.8 20.9,19.5666667 20.7,19.3 C20.4333333,19.1 20.2,19 20,19 C19.8333333,19 19.5833333,19.1 19.25,19.3 C19.0833333,19.5333333 19,19.7666667 19,20 C19,20.2333333 19.0833333,20.4833333 19.25,20.75 C19.5166667,20.9166667 19.7666667,21 20,21 C20.2333333,21 20.4666667,20.9166667 20.7,20.75 Z M20.7,15.7 C20.9,15.4333333 21,15.2 21,15 C21,14.7666667 20.9,14.55 20.7,14.35 C20.5,14.1166667 20.2666667,14 20,14 C19.7333333,14 19.4833333,14.1166667 19.25,14.35 C19.0833333,14.5166667 19,14.7333333 19,15 C19,15.2333333 19.0833333,15.4666667 19.25,15.7 C19.45,15.9 19.7,16 20,16 C20.3,16 20.5333333,15.9 20.7,15.7 Z M25,14 C24.7333333,14 24.4833333,14.1166667 24.25,14.35 C24.0833333,14.5166667 24,14.7333333 24,15 C24,15.2333333 24.0833333,15.4666667 24.25,15.7 C24.45,15.9 24.7,16 25,16 C25.3,16 25.5333333,15.9 25.7,15.7 C25.9,15.4333333 26,15.2 26,15 C26,14.7666667 25.9,14.55 25.7,14.35 C25.5,14.1166667 25.2666667,14 25,14 Z" id="Shape" fill="#474747" fill-rule="nonzero"></path>
    </g>
</svg>