
<svg width="110px"  viewBox="0 0 110 54" version="1.1" xmlns="http://www.w3.org/2000/svg" xmlns:xlink="http://www.w3.org/1999/xlink">
    <!-- Generator: Sketch 46.1 (44463) - http://www.bohemiancoding.com/sketch -->
    <desc>Created with Sketch.</desc>
    <defs></defs>
    <g id="Page-1" stroke="none" stroke-width="1" fill="none" fill-rule="evenodd">
        <g id="VPN">
            <g id="Oval">
                <circle fill="#D9D8D7" cx="27" cy="27" r="27"></circle>
                <path d="M26.5726853,6.70965882 C31.5200382,6.70965882 35.5311265,10.7167765 35.5311265,15.6609529 L35.5311265,20.9871 L32.6611853,20.9871 L32.6611853,15.6609529 C32.6611853,12.3081882 29.9302147,9.57801176 26.5726853,9.57801176 C23.2103912,9.57801176 20.4770382,12.3081882 20.4770382,15.6609529 L20.4770382,20.9871 L17.6094794,20.9871 L17.6094794,15.6609529 C17.6094794,10.7167765 21.6253324,6.70965882 26.5726853,6.70965882 Z" id="Fill-1" fill="#FFFFFF"></path>
                <polygon id="Fill-3" fill="#F15424" points="14.2941176 39.8432647 38.8450588 39.8432647 38.8450588 20.9877353 14.2941176 20.9877353"></polygon>
                <polygon id="Fill-5" fill="#242D3C" points="14.2941176 43.3119706 38.8450588 43.3119706 38.8450588 39.7058824 14.2941176 39.7058824"></polygon>
                <polygon id="Fill-6" fill="#FFFFFF" points="16.5271765 33.0194118 36.6143824 33.0194118 36.6143824 27.8107941 16.5271765 27.8107941"></polygon>
                <path d="M20.8976029,30.4153412 C20.8976029,31.0323706 20.3981029,31.5310765 19.7810735,31.5310765 C19.16325,31.5310765 18.6645441,31.0323706 18.6645441,30.4153412 C18.6645441,29.7991059 19.16325,29.2996059 19.7810735,29.2996059 C20.3981029,29.2996059 20.8976029,29.7991059 20.8976029,30.4153412" id="Fill-7" fill="#242D3C"></path>
                <path d="M24.2911853,30.4153412 C24.2911853,31.0323706 23.7900971,31.5310765 23.17545,31.5310765 C22.5592147,31.5310765 22.0581265,31.0323706 22.0581265,30.4153412 C22.0581265,29.7991059 22.5592147,29.2996059 23.17545,29.2996059 C23.7900971,29.2996059 24.2911853,29.7991059 24.2911853,30.4153412" id="Fill-8" fill="#242D3C"></path>
                <path d="M27.68715,30.4153412 C27.68715,31.0323706 27.18765,31.5310765 26.5690324,31.5310765 C25.9520029,31.5310765 25.4525029,31.0323706 25.4525029,30.4153412 C25.4525029,29.7991059 25.9520029,29.2996059 26.5690324,29.2996059 C27.18765,29.2996059 27.68715,29.7991059 27.68715,30.4153412" id="Fill-9" fill="#242D3C"></path>
                <path d="M31.0791441,30.4153412 C31.0791441,31.0323706 30.5804382,31.5310765 29.9626147,31.5310765 C29.3487618,31.5310765 28.8500559,31.0323706 28.8500559,30.4153412 C28.8500559,29.7991059 29.3487618,29.2996059 29.9626147,29.2996059 C30.5804382,29.2996059 31.0791441,29.7991059 31.0791441,30.4153412" id="Fill-10" fill="#242D3C"></path>
                <path d="M34.4751088,30.4153412 C34.4751088,31.0323706 33.9740206,31.5310765 33.3577853,31.5310765 C32.7407559,31.5310765 32.2428441,31.0323706 32.2428441,30.4153412 C32.2428441,29.7991059 32.7407559,29.2996059 33.3577853,29.2996059 C33.9740206,29.2996059 34.4751088,29.7991059 34.4751088,30.4153412" id="Fill-11" fill="#242D3C"></path>
                <path d="M68.8563546,20.1705866 L66.7837072,20.1705866 L63.903442,28.1538526 L61.037471,20.1705866 L58.9147941,20.1705866 L62.6741477,30.1764706 L65.097001,30.1764706 L68.8563546,20.1705866 Z M74.2380891,26.5171759 L72.1368535,26.5171759 L72.1368535,30.1764706 L70.1428237,30.1764706 L70.1428237,20.1705866 L74.223795,20.1705866 C76.610913,20.1705866 77.8830897,21.414175 77.8830897,23.3510283 C77.8830897,25.2735874 76.610913,26.5171759 74.2380891,26.5171759 Z M74.1880597,22.007381 L72.1368535,22.007381 L72.1368535,24.6946756 L74.1880597,24.6946756 C75.2744128,24.6946756 75.8390305,24.2515579 75.8390305,23.3510283 C75.8390305,22.4576458 75.2744128,22.007381 74.1880597,22.007381 Z M88.5322075,20.1705866 L86.5310307,20.1705866 L86.5310307,26.8530877 L81.4494711,20.1705866 L79.5840884,20.1705866 L79.5840884,30.1764706 L81.5781182,30.1764706 L81.5852652,23.4939695 L86.6596778,30.1764706 L88.5322075,30.1764706 L88.5322075,20.1705866 Z" id="VPN" fill="#242D3C"></path>
                <path d="M59.7271766,35.417646 L62.3430006,35.417646 C63.8438832,35.417646 64.6729421,36.0942343 64.6729421,37.2997051 C64.6729421,38.4527641 63.7771773,39.1865289 62.35253,39.1865289 L62.2429417,39.1865289 L64.6395892,42.0882353 L63.6866479,42.0882353 L61.3376475,39.1865289 L60.4942944,39.1865289 L60.4942944,42.0882353 L59.7271766,42.0882353 L59.7271766,35.417646 Z M62.3334712,36.1371167 L60.4942944,36.1371167 L60.4942944,38.4908818 L62.3334712,38.4908818 C63.3483537,38.4908818 63.8772361,38.0763523 63.8772361,37.2997051 C63.8772361,36.5278226 63.3340596,36.1371167 62.3334712,36.1371167 Z M70.8670598,41.3687646 L66.9409415,41.3687646 L66.9409415,39.0864701 L70.7050597,39.0864701 L70.7050597,38.3717641 L66.9409415,38.3717641 L66.9409415,36.1371167 L70.8241774,36.1371167 L70.8241774,35.417646 L66.1738237,35.417646 L66.1738237,42.0882353 L70.8670598,42.0882353 L70.8670598,41.3687646 Z M75.6555889,35.3223518 C77.6424716,35.3223518 79.1004718,36.7517638 79.1004718,38.7529406 C79.1004718,39.6153525 78.8241188,40.3729409 78.3571776,40.9494704 L79.2386483,42.0882353 L78.3381187,42.0882353 L77.8378245,41.4640587 C77.2565303,41.9214706 76.498942,42.1835294 75.6555889,42.1835294 C73.6734709,42.1835294 72.210706,40.7541174 72.210706,38.7529406 C72.210706,36.7517638 73.6734709,35.3223518 75.6555889,35.3223518 Z M75.6555889,36.0608814 C74.159471,36.0608814 73.0159414,37.1472345 73.0159414,38.7529406 C73.0159414,40.3586468 74.159471,41.4449999 75.6555889,41.4449999 C76.3178831,41.4449999 76.9134715,41.2353528 77.3661186,40.858941 L75.8223536,38.8815877 L76.7371773,38.8815877 L77.8568834,40.3109997 C78.1380011,39.8869408 78.3000011,39.3580584 78.3000011,38.7529406 C78.3000011,37.1472345 77.1564715,36.0608814 75.6555889,36.0608814 Z M86.0426481,35.417646 L85.2755303,35.417646 L85.2755303,39.4199996 C85.2755303,40.8160586 84.4321772,41.4449999 83.2934124,41.4449999 C82.1546475,41.4449999 81.3112944,40.8160586 81.3112944,39.4199996 L81.3112944,35.417646 L80.5489413,35.417646 L80.5489413,39.477176 C80.5489413,41.2877646 81.7687062,42.1787647 83.2934124,42.1787647 C84.8181185,42.1787647 86.0426481,41.2877646 86.0426481,39.477176 L86.0426481,35.417646 Z M88.639412,35.417646 L87.8722943,35.417646 L87.8722943,42.0882353 L88.639412,42.0882353 L88.639412,35.417646 Z M90.5643531,35.417646 L93.1801771,35.417646 C94.6810597,35.417646 95.5101186,36.0942343 95.5101186,37.2997051 C95.5101186,38.4527641 94.6143538,39.1865289 93.1897065,39.1865289 L93.0801182,39.1865289 L95.4767657,42.0882353 L94.5238243,42.0882353 L92.174824,39.1865289 L91.3314709,39.1865289 L91.3314709,42.0882353 L90.5643531,42.0882353 L90.5643531,35.417646 Z M93.1706476,36.1371167 L91.3314709,36.1371167 L91.3314709,38.4908818 L93.1706476,38.4908818 C94.1855302,38.4908818 94.7144126,38.0763523 94.7144126,37.2997051 C94.7144126,36.5278226 94.171236,36.1371167 93.1706476,36.1371167 Z M101.704236,41.3687646 L97.7781179,41.3687646 L97.7781179,39.0864701 L101.542236,39.0864701 L101.542236,38.3717641 L97.7781179,38.3717641 L97.7781179,36.1371167 L101.661354,36.1371167 L101.661354,35.417646 L97.0110002,35.417646 L97.0110002,42.0882353 L101.704236,42.0882353 L101.704236,41.3687646 Z M103.433824,35.417646 L105.944824,35.417646 C108.122295,35.417646 109.50406,36.7184109 109.50406,38.7529406 C109.50406,40.7874704 108.122295,42.0882353 105.944824,42.0882353 L103.433824,42.0882353 L103.433824,35.417646 Z M105.944824,36.1418814 L104.200941,36.1418814 L104.200941,41.3639999 L105.944824,41.3639999 C107.750648,41.3639999 108.698825,40.3157644 108.698825,38.7529406 C108.698825,37.1805874 107.750648,36.1418814 105.944824,36.1418814 Z" id="REQUIRED" stroke="#242D3C" stroke-width="0.2" fill="#242D3C"></path>
            </g>
        </g>
    </g>
</svg>