<?xml version="1.0" encoding="UTF-8" standalone="no"?>
<svg width="28px" height="28px" viewBox="0 0 28 28" version="1.1" xmlns="http://www.w3.org/2000/svg" xmlns:xlink="http://www.w3.org/1999/xlink">
    <!-- Generator: Sketch 43.1 (39012) - http://www.bohemiancoding.com/sketch -->
    <title>thumbnail</title>
    <desc>Created with Sketch.</desc>
    <defs></defs>
    <g id="Page-1" stroke="none" stroke-width="1" fill="none" fill-rule="evenodd">
        <g id="Artboard" transform="translate(-217.000000, -43.000000)" fill="#07C1E4">
            <g id="thumbnail" transform="translate(217.000000, 43.000000)">
                <rect id="Rectangle" x="0" y="0" width="8" height="8"></rect>
                <rect id="Rectangle" x="10" y="0" width="8" height="8"></rect>
                <rect id="Rectangle" x="20" y="0" width="8" height="8"></rect>
                <rect id="Rectangle" x="0" y="10" width="8" height="8"></rect>
                <rect id="Rectangle" x="10" y="10" width="8" height="8"></rect>
                <rect id="Rectangle" x="20" y="10" width="8" height="8"></rect>
                <rect id="Rectangle" x="0" y="20" width="8" height="8"></rect>
                <rect id="Rectangle" x="10" y="20" width="8" height="8"></rect>
                <rect id="Rectangle" x="20" y="20" width="8" height="8"></rect>
                <rect id="Rectangle" x="10" y="0" width="8" height="8"></rect>
                <rect id="Rectangle" x="20" y="0" width="8" height="8"></rect>
                <rect id="Rectangle" x="10" y="10" width="8" height="8"></rect>
                <rect id="Rectangle" x="20" y="10" width="8" height="8"></rect>
                <rect id="Rectangle" x="10" y="20" width="8" height="8"></rect>
                <rect id="Rectangle" x="20" y="20" width="8" height="8"></rect>
            </g>
        </g>
    </g>
</svg>